<svg width="448" height="47" viewBox="0 0 448 47" fill="none" xmlns="http://www.w3.org/2000/svg">
<path d="M18.608 46.448C13.36 46.448 9.05067 45.2107 5.68 42.736C2.30933 40.2187 0.496 36.6347 0.24 31.984H13.616C13.744 33.5627 14.2133 34.7147 15.024 35.44C15.8347 36.1653 16.88 36.528 18.16 36.528C19.312 36.528 20.2507 36.2507 20.976 35.696C21.744 35.0987 22.128 34.288 22.128 33.264C22.128 31.9413 21.5093 30.9173 20.272 30.192C19.0347 29.4667 17.0293 28.656 14.256 27.76C11.312 26.7787 8.92267 25.84 7.088 24.944C5.296 24.0053 3.71733 22.6613 2.352 20.912C1.02933 19.12 0.368 16.7947 0.368 13.936C0.368 11.0347 1.09333 8.56 2.544 6.512C3.99467 4.42133 6 2.84267 8.56 1.776C11.12 0.709332 14.0213 0.175999 17.264 0.175999C22.512 0.175999 26.6933 1.41333 29.808 3.888C32.9653 6.32 34.6507 9.75467 34.864 14.192H21.232C21.1893 12.8267 20.7627 11.8027 19.952 11.12C19.184 10.4373 18.1813 10.096 16.944 10.096C16.0053 10.096 15.2373 10.3733 14.64 10.928C14.0427 11.4827 13.744 12.272 13.744 13.296C13.744 14.1493 14.064 14.896 14.704 15.536C15.3867 16.1333 16.2187 16.6667 17.2 17.136C18.1813 17.5627 19.632 18.1173 21.552 18.8C24.4107 19.7813 26.7573 20.7627 28.592 21.744C30.4693 22.6827 32.0693 24.0267 33.392 25.776C34.7573 27.4827 35.44 29.6587 35.44 32.304C35.44 34.992 34.7573 37.4027 33.392 39.536C32.0693 41.6693 30.128 43.3547 27.568 44.592C25.0507 45.8293 22.064 46.448 18.608 46.448ZM62.9035 46.448C58.6795 46.448 54.7968 45.4667 51.2555 43.504C47.7142 41.4987 44.8982 38.7467 42.8075 35.248C40.7595 31.7067 39.7355 27.7173 39.7355 23.28C39.7355 18.8427 40.7595 14.8747 42.8075 11.376C44.8982 7.83467 47.7142 5.08267 51.2555 3.12C54.7968 1.15733 58.6795 0.175999 62.9035 0.175999C67.1702 0.175999 71.0528 1.15733 74.5515 3.12C78.0928 5.08267 80.8875 7.83467 82.9355 11.376C84.9835 14.8747 86.0075 18.8427 86.0075 23.28C86.0075 27.7173 84.9835 31.7067 82.9355 35.248C80.8875 38.7467 78.0928 41.4987 74.5515 43.504C71.0102 45.4667 67.1275 46.448 62.9035 46.448ZM62.9035 34.8C66.1035 34.8 68.6208 33.7547 70.4555 31.664C72.3328 29.5733 73.2715 26.7787 73.2715 23.28C73.2715 19.696 72.3328 16.88 70.4555 14.832C68.6208 12.7413 66.1035 11.696 62.9035 11.696C59.6608 11.696 57.1222 12.7413 55.2875 14.832C53.4528 16.88 52.5355 19.696 52.5355 23.28C52.5355 26.8213 53.4528 29.6373 55.2875 31.728C57.1222 33.776 59.6608 34.8 62.9035 34.8ZM144.319 0.879997V46H131.775V21.104L123.263 46H112.767L104.191 20.912V46H91.6465V0.879997H106.815L118.143 30.192L129.215 0.879997H144.319ZM164.003 10.928V18.288H178.403V27.824H164.003V35.952H180.323V46H151.459V0.879997H180.323V10.928H164.003ZM221.079 11.455V19.099H211.867V46H202.263V19.099H193.149V11.455H221.079ZM234.237 11.455V46H224.633V11.455H234.237ZM265.725 11.455V19.099H256.513V46H246.909V19.099H237.795V11.455H265.725ZM278.882 38.65H289.613V46H269.278V11.455H278.882V38.65ZM302.952 19.148V24.783H313.977V32.084H302.952V38.307H315.447V46H293.348V11.455H315.447V19.148H302.952ZM360.49 11.455V46H350.886V32.133H339.175V46H329.571V11.455H339.175V24.44H350.886V11.455H360.49ZM375.59 19.148V24.783H386.615V32.084H375.59V38.307H388.085V46H365.986V11.455H388.085V19.148H375.59ZM410.324 46L403.464 33.26H402.435V46H392.831V11.455H407.972C410.749 11.455 413.101 11.945 415.028 12.925C416.955 13.8723 418.409 15.1953 419.389 16.894C420.369 18.56 420.859 20.4383 420.859 22.529C420.859 24.881 420.206 26.9553 418.899 28.752C417.625 30.516 415.747 31.7737 413.264 32.525L421.055 46H410.324ZM402.435 26.694H407.188C408.495 26.694 409.475 26.3837 410.128 25.763C410.781 25.1423 411.108 24.244 411.108 23.068C411.108 21.9573 410.765 21.0917 410.079 20.471C409.426 19.8177 408.462 19.491 407.188 19.491H402.435V26.694ZM434.83 19.148V24.783H445.855V32.084H434.83V38.307H447.325V46H425.226V11.455H447.325V19.148H434.83Z" fill="url(#paint0_linear)"/>
<defs>
<linearGradient id="paint0_linear" x1="426.746" y1="23.9999" x2="-41.9678" y2="23.9999" gradientUnits="userSpaceOnUse">
<stop stop-color="#D901B5"/>
<stop offset="0.448061" stop-color="#FF0104"/>
<stop offset="1" stop-color="#FFC901"/>
</linearGradient>
</defs>
</svg>
