<svg width="495" height="51" viewBox="0 0 495 51" fill="none" xmlns="http://www.w3.org/2000/svg">
<path d="M10.348 2.455V37H0.744V2.455H10.348ZM47.8142 37H38.2102L25.4212 17.694V37H15.8172V2.455H25.4212L38.2102 22.006V2.455H47.8142V37ZM66.319 37.343C62.301 37.343 59.0017 36.3957 56.421 34.501C53.8403 32.5737 52.452 29.8297 52.256 26.269H62.497C62.595 27.4777 62.9543 28.3597 63.575 28.915C64.1957 29.4703 64.996 29.748 65.976 29.748C66.858 29.748 67.5767 29.5357 68.132 29.111C68.72 28.6537 69.014 28.033 69.014 27.249C69.014 26.2363 68.5403 25.4523 67.593 24.897C66.6457 24.3417 65.1103 23.721 62.987 23.035C60.733 22.2837 58.9037 21.565 57.499 20.879C56.127 20.1603 54.9183 19.1313 53.873 17.792C52.8603 16.42 52.354 14.6397 52.354 12.451C52.354 10.2297 52.9093 8.335 54.02 6.767C55.1307 5.16633 56.666 3.95767 58.626 3.141C60.586 2.32433 62.8073 1.916 65.29 1.916C69.308 1.916 72.5093 2.86333 74.894 4.758C77.3114 6.62 78.6017 9.24967 78.765 12.647H68.328C68.2953 11.6017 67.9687 10.8177 67.348 10.295C66.76 9.77233 65.9923 9.511 65.045 9.511C64.3263 9.511 63.7383 9.72333 63.281 10.148C62.8237 10.5727 62.595 11.177 62.595 11.961C62.595 12.6143 62.84 13.186 63.33 13.676C63.8527 14.1333 64.4897 14.5417 65.241 14.901C65.9923 15.2277 67.103 15.6523 68.573 16.175C70.7617 16.9263 72.5584 17.6777 73.963 18.429C75.4003 19.1477 76.6253 20.1767 77.638 21.516C78.6834 22.8227 79.206 24.4887 79.206 26.514C79.206 28.572 78.6834 30.4177 77.638 32.051C76.6253 33.6843 75.139 34.9747 73.179 35.922C71.2517 36.8693 68.965 37.343 66.319 37.343ZM109.69 2.455V10.099H100.478V37H90.8738V10.099H81.7598V2.455H109.69ZM135.097 31.365H122.847L120.985 37H110.891L123.484 2.455H134.558L147.102 37H136.959L135.097 31.365ZM132.696 24.015L128.972 12.843L125.297 24.015H132.696ZM172.282 13.823C171.727 12.9083 170.959 12.206 169.979 11.716C169.032 11.226 167.905 10.981 166.598 10.981C164.181 10.981 162.27 11.765 160.865 13.333C159.493 14.901 158.807 17.008 158.807 19.654C158.807 22.6267 159.542 24.897 161.012 26.465C162.515 28.0003 164.687 28.768 167.529 28.768C170.894 28.768 173.295 27.249 174.732 24.211H165.079V17.302H183.013V26.612C182.262 28.4413 181.151 30.1563 179.681 31.757C178.244 33.3577 176.415 34.6807 174.193 35.726C171.972 36.7387 169.44 37.245 166.598 37.245C163.136 37.245 160.065 36.51 157.386 35.04C154.74 33.5373 152.682 31.463 151.212 28.817C149.775 26.1383 149.056 23.084 149.056 19.654C149.056 16.2567 149.775 13.235 151.212 10.589C152.682 7.91033 154.74 5.836 157.386 4.366C160.032 2.86333 163.087 2.112 166.549 2.112C170.894 2.112 174.487 3.15733 177.329 5.248C180.171 7.33866 181.935 10.197 182.621 13.823H172.282ZM204.81 37L197.95 24.26H196.921V37H187.317V2.455H202.458C205.235 2.455 207.587 2.945 209.514 3.925C211.442 4.87233 212.895 6.19533 213.875 7.894C214.855 9.56 215.345 11.4383 215.345 13.529C215.345 15.881 214.692 17.9553 213.385 19.752C212.111 21.516 210.233 22.7737 207.75 23.525L215.541 37H204.81ZM196.921 17.694H201.674C202.981 17.694 203.961 17.3837 204.614 16.763C205.268 16.1423 205.594 15.244 205.594 14.068C205.594 12.9573 205.251 12.0917 204.565 11.471C203.912 10.8177 202.948 10.491 201.674 10.491H196.921V17.694ZM241.567 31.365H229.317L227.455 37H217.361L229.954 2.455H241.028L253.572 37H243.429L241.567 31.365ZM239.166 24.015L235.442 12.843L231.767 24.015H239.166ZM297.029 2.455V37H287.425V17.939L280.908 37H272.872L266.306 17.792V37H256.702V2.455H268.315L276.988 24.897L285.465 2.455H297.029ZM333.925 13.823C333.37 12.9083 332.602 12.206 331.622 11.716C330.675 11.226 329.548 10.981 328.241 10.981C325.824 10.981 323.913 11.765 322.508 13.333C321.136 14.901 320.45 17.008 320.45 19.654C320.45 22.6267 321.185 24.897 322.655 26.465C324.158 28.0003 326.33 28.768 329.172 28.768C332.537 28.768 334.938 27.249 336.375 24.211H326.722V17.302H344.656V26.612C343.905 28.4413 342.794 30.1563 341.324 31.757C339.887 33.3577 338.057 34.6807 335.836 35.726C333.615 36.7387 331.083 37.245 328.241 37.245C324.778 37.245 321.708 36.51 319.029 35.04C316.383 33.5373 314.325 31.463 312.855 28.817C311.418 26.1383 310.699 23.084 310.699 19.654C310.699 16.2567 311.418 13.235 312.855 10.589C314.325 7.91033 316.383 5.836 319.029 4.366C321.675 2.86333 324.729 2.112 328.192 2.112C332.537 2.112 336.13 3.15733 338.972 5.248C341.814 7.33866 343.578 10.197 344.264 13.823H333.925ZM347.392 23.231C347.392 20.389 347.898 17.9063 348.911 15.783C349.956 13.6597 351.361 12.0263 353.125 10.883C354.921 9.73967 356.914 9.168 359.103 9.168C360.997 9.168 362.631 9.54367 364.003 10.295C365.375 11.0463 366.436 12.059 367.188 13.333V9.511H376.792V37H367.188V33.178C366.436 34.452 365.358 35.4647 363.954 36.216C362.582 36.9673 360.965 37.343 359.103 37.343C356.914 37.343 354.921 36.7713 353.125 35.628C351.361 34.4847 349.956 32.8513 348.911 30.728C347.898 28.572 347.392 26.073 347.392 23.231ZM367.188 23.231C367.188 21.467 366.698 20.0787 365.718 19.066C364.77 18.0533 363.594 17.547 362.19 17.547C360.752 17.547 359.56 18.0533 358.613 19.066C357.665 20.046 357.192 21.4343 357.192 23.231C357.192 24.995 357.665 26.3997 358.613 27.445C359.56 28.4577 360.752 28.964 362.19 28.964C363.594 28.964 364.77 28.4577 365.718 27.445C366.698 26.4323 367.188 25.0277 367.188 23.231ZM391.869 0.74V37H382.265V0.74H391.869ZM406.942 0.74V37H397.338V0.74H406.942ZM438.675 22.937C438.675 23.6883 438.626 24.4397 438.528 25.191H420.349C420.447 26.6937 420.855 27.8207 421.574 28.572C422.325 29.2907 423.273 29.65 424.416 29.65C426.017 29.65 427.16 28.9313 427.846 27.494H438.087C437.662 29.3887 436.829 31.0873 435.588 32.59C434.379 34.06 432.844 35.2197 430.982 36.069C429.12 36.9183 427.062 37.343 424.808 37.343C422.097 37.343 419.679 36.7713 417.556 35.628C415.465 34.4847 413.816 32.8513 412.607 30.728C411.431 28.6047 410.843 26.1057 410.843 23.231C410.843 20.3563 411.431 17.8737 412.607 15.783C413.783 13.6597 415.416 12.0263 417.507 10.883C419.63 9.73967 422.064 9.168 424.808 9.168C427.519 9.168 429.92 9.72333 432.011 10.834C434.102 11.9447 435.735 13.5453 436.911 15.636C438.087 17.694 438.675 20.1277 438.675 22.937ZM428.875 20.536C428.875 19.36 428.483 18.4453 427.699 17.792C426.915 17.106 425.935 16.763 424.759 16.763C423.583 16.763 422.619 17.0897 421.868 17.743C421.117 18.3637 420.627 19.2947 420.398 20.536H428.875ZM452.209 14.362C453.287 12.794 454.594 11.5527 456.129 10.638C457.665 9.72333 459.314 9.266 461.078 9.266V19.507H458.383C456.293 19.507 454.741 19.9153 453.728 20.732C452.716 21.5487 452.209 22.9697 452.209 24.995V37H442.605V9.511H452.209V14.362ZM494.117 9.511L476.673 50.083H466.236L472.802 35.824L461.532 9.511H472.214L477.996 25.093L483.582 9.511H494.117Z" fill="url(#paint0_linear)"/>
<defs>
<linearGradient id="paint0_linear" x1="468.482" y1="20" x2="-45.8585" y2="19.9999" gradientUnits="userSpaceOnUse">
<stop stop-color="#D901B5"/>
<stop offset="0.448061" stop-color="#FF0104"/>
<stop offset="1" stop-color="#FFC901"/>
</linearGradient>
</defs>
</svg>
