<svg width="1920" height="1080" viewBox="0 0 1920 1080" fill="none" xmlns="http://www.w3.org/2000/svg">
<path d="M1476 585C1446 571 1168.79 652.487 1024 545.5C821 395.5 558 589.5 351.5 320.75C247.194 185 130.705 137.373 4 -4H-19.5V1084H1965.5V354C1946.5 381.333 1973.1 341.1 1919.5 403.5C1852.5 481.5 1865.5 542.5 1776.5 593.5C1705.3 634.3 1663.5 589.5 1587.5 635C1511.5 680.5 1469.5 697.5 1493 671.5C1516.5 645.5 1496.5 631 1496.5 631C1496.5 631 1506 599 1476 585Z" fill="white"/>
<path opacity="0.1" d="M1744.62 650.75C1744.65 615.677 1038.58 729.044 1025.5 696.5L626.48 663.67C615.182 684.157 606.539 705.999 600.76 728.67L940.89 779.37L593 816.37C603.46 962.78 729 1078.37 882.3 1078.37C959.49 1078.37 1029.62 1049.06 1081.58 1001.29C1133.71 1049.95 1204.51 1079.95 1282.52 1079.95C1398.27 1079.95 1498.18 1014.04 1544.7 918.75C1638.03 889.13 1710.54 814.75 1735.35 721.75L1695.5 709.5L1744.58 654.95C1744.6 653.54 1744.62 652.15 1744.62 650.75Z" fill="#62C6FF"/>
<path opacity="0.1" d="M1217.71 977.83C1236.13 977.83 1251.07 972.654 1251.07 966.27C1251.07 959.886 1236.13 954.71 1217.71 954.71C1199.29 954.71 1184.35 959.886 1184.35 966.27C1184.35 972.654 1199.29 977.83 1217.71 977.83Z" fill="#FF62C0"/>
<path opacity="0.1" d="M1636.83 977.83C1655.25 977.83 1670.19 972.654 1670.19 966.27C1670.19 959.886 1655.25 954.71 1636.83 954.71C1618.41 954.71 1603.47 959.886 1603.47 966.27C1603.47 972.654 1618.41 977.83 1636.83 977.83Z" fill="#FF62C0"/>
<path opacity="0.1" d="M1181.32 1035.75C1199.75 1035.75 1214.68 1030.57 1214.68 1024.19C1214.68 1017.81 1199.75 1012.63 1181.32 1012.63C1162.9 1012.63 1147.96 1017.81 1147.96 1024.19C1147.96 1030.57 1162.9 1035.75 1181.32 1035.75Z" fill="#FF62C0"/>
<path opacity="0.1" d="M1673.01 1036.87C1691.43 1036.87 1706.37 1031.69 1706.37 1025.31C1706.37 1018.93 1691.43 1013.75 1673.01 1013.75C1654.59 1013.75 1639.65 1018.93 1639.65 1025.31C1639.65 1031.69 1654.59 1036.87 1673.01 1036.87Z" fill="#FF62C0"/>
<path d="M1661.78 1014.27L1669.07 1029.83V914.26H1661.78V1014.27Z" fill="#B77B7F"/>
<path d="M1190.89 1014.27L1183.6 1029.83V914.26H1190.89V1014.27Z" fill="#B77B7F"/>
<path opacity="0.1" d="M1661.78 1014.27L1669.07 1029.83V914.26H1661.78V1014.27Z" fill="black"/>
<path opacity="0.1" d="M1190.89 1014.27L1183.6 1029.83V914.26H1190.89V1014.27Z" fill="black"/>
<path d="M1240.56 701.99H1220.36V844.05H1240.56V701.99Z" fill="#B77B7F"/>
<path d="M1646.93 701.99H1626.73V844.05H1646.93V701.99Z" fill="#B77B7F"/>
<path opacity="0.1" d="M1240.56 701.99H1220.36V718.55H1240.56V701.99Z" fill="black"/>
<path opacity="0.1" d="M1646.93 701.99H1626.73V718.55H1646.93V701.99Z" fill="black"/>
<path d="M1675.69 696.03H1189.23V717.22H1675.69V696.03Z" fill="#DDA2A6"/>
<path opacity="0.1" d="M1240.56 726.16H1220.36V747.35H1240.56V726.16Z" fill="black"/>
<path opacity="0.1" d="M1646.93 726.16H1626.73V747.35H1646.93V726.16Z" fill="black"/>
<path d="M1675.69 724.84H1189.23V746.03H1675.69V724.84Z" fill="#DDA2A6"/>
<path opacity="0.1" d="M1240.56 754.97H1220.36V776.16H1240.56V754.97Z" fill="black"/>
<path opacity="0.1" d="M1646.93 754.97H1626.73V776.16H1646.93V754.97Z" fill="black"/>
<path d="M1675.69 753.65H1189.23V774.84H1675.69V753.65Z" fill="#DDA2A6"/>
<path opacity="0.1" d="M1240.56 783.78H1220.36V804.97H1240.56V783.78Z" fill="black"/>
<path opacity="0.1" d="M1646.93 783.78H1626.73V804.97H1646.93V783.78Z" fill="black"/>
<path d="M1675.69 782.46H1189.23V803.65H1675.69V782.46Z" fill="#DDA2A6"/>
<path opacity="0.1" d="M1240.56 812.59H1220.36V833.78H1240.56V812.59Z" fill="black"/>
<path opacity="0.1" d="M1646.93 812.59H1626.73V833.78H1646.93V812.59Z" fill="black"/>
<path d="M1675.69 811.27H1189.23V832.46H1675.69V811.27Z" fill="#DDA2A6"/>
<g opacity="0.1">
<path opacity="0.1" d="M1230.46 710.88C1232.08 710.88 1233.39 709.568 1233.39 707.95C1233.39 706.332 1232.08 705.02 1230.46 705.02C1228.84 705.02 1227.53 706.332 1227.53 707.95C1227.53 709.568 1228.84 710.88 1230.46 710.88Z" fill="black"/>
<path opacity="0.1" d="M1230.46 739.69C1232.08 739.69 1233.39 738.378 1233.39 736.76C1233.39 735.142 1232.08 733.83 1230.46 733.83C1228.84 733.83 1227.53 735.142 1227.53 736.76C1227.53 738.378 1228.84 739.69 1230.46 739.69Z" fill="black"/>
<path opacity="0.1" d="M1230.46 768.5C1232.08 768.5 1233.39 767.188 1233.39 765.57C1233.39 763.952 1232.08 762.64 1230.46 762.64C1228.84 762.64 1227.53 763.952 1227.53 765.57C1227.53 767.188 1228.84 768.5 1230.46 768.5Z" fill="black"/>
<path opacity="0.1" d="M1230.46 797.31C1232.08 797.31 1233.39 795.998 1233.39 794.38C1233.39 792.762 1232.08 791.45 1230.46 791.45C1228.84 791.45 1227.53 792.762 1227.53 794.38C1227.53 795.998 1228.84 797.31 1230.46 797.31Z" fill="black"/>
<path opacity="0.1" d="M1230.46 826.12C1232.08 826.12 1233.39 824.808 1233.39 823.19C1233.39 821.572 1232.08 820.26 1230.46 820.26C1228.84 820.26 1227.53 821.572 1227.53 823.19C1227.53 824.808 1228.84 826.12 1230.46 826.12Z" fill="black"/>
<path opacity="0.1" d="M1636.84 710.88C1638.46 710.88 1639.77 709.568 1639.77 707.95C1639.77 706.332 1638.46 705.02 1636.84 705.02C1635.22 705.02 1633.91 706.332 1633.91 707.95C1633.91 709.568 1635.22 710.88 1636.84 710.88Z" fill="black"/>
<path opacity="0.1" d="M1636.84 739.69C1638.46 739.69 1639.77 738.378 1639.77 736.76C1639.77 735.142 1638.46 733.83 1636.84 733.83C1635.22 733.83 1633.91 735.142 1633.91 736.76C1633.91 738.378 1635.22 739.69 1636.84 739.69Z" fill="black"/>
<path opacity="0.1" d="M1636.84 768.5C1638.46 768.5 1639.77 767.188 1639.77 765.57C1639.77 763.952 1638.46 762.64 1636.84 762.64C1635.22 762.64 1633.91 763.952 1633.91 765.57C1633.91 767.188 1635.22 768.5 1636.84 768.5Z" fill="black"/>
<path opacity="0.1" d="M1636.84 797.31C1638.46 797.31 1639.77 795.998 1639.77 794.38C1639.77 792.762 1638.46 791.45 1636.84 791.45C1635.22 791.45 1633.91 792.762 1633.91 794.38C1633.91 795.998 1635.22 797.31 1636.84 797.31Z" fill="black"/>
<path opacity="0.1" d="M1636.84 826.12C1638.46 826.12 1639.77 824.808 1639.77 823.19C1639.77 821.572 1638.46 820.26 1636.84 820.26C1635.22 820.26 1633.91 821.572 1633.91 823.19C1633.91 824.808 1635.22 826.12 1636.84 826.12Z" fill="black"/>
</g>
<path d="M1230.46 709.56C1232.08 709.56 1233.39 708.248 1233.39 706.63C1233.39 705.012 1232.08 703.7 1230.46 703.7C1228.84 703.7 1227.53 705.012 1227.53 706.63C1227.53 708.248 1228.84 709.56 1230.46 709.56Z" fill="#918C9E"/>
<path d="M1230.46 738.37C1232.08 738.37 1233.39 737.058 1233.39 735.44C1233.39 733.822 1232.08 732.51 1230.46 732.51C1228.84 732.51 1227.53 733.822 1227.53 735.44C1227.53 737.058 1228.84 738.37 1230.46 738.37Z" fill="#918C9E"/>
<path d="M1230.46 767.18C1232.08 767.18 1233.39 765.868 1233.39 764.25C1233.39 762.632 1232.08 761.32 1230.46 761.32C1228.84 761.32 1227.53 762.632 1227.53 764.25C1227.53 765.868 1228.84 767.18 1230.46 767.18Z" fill="#918C9E"/>
<path d="M1230.46 795.99C1232.08 795.99 1233.39 794.678 1233.39 793.06C1233.39 791.442 1232.08 790.13 1230.46 790.13C1228.84 790.13 1227.53 791.442 1227.53 793.06C1227.53 794.678 1228.84 795.99 1230.46 795.99Z" fill="#918C9E"/>
<path d="M1230.46 824.8C1232.08 824.8 1233.39 823.488 1233.39 821.87C1233.39 820.252 1232.08 818.94 1230.46 818.94C1228.84 818.94 1227.53 820.252 1227.53 821.87C1227.53 823.488 1228.84 824.8 1230.46 824.8Z" fill="#918C9E"/>
<path d="M1636.84 709.56C1638.46 709.56 1639.77 708.248 1639.77 706.63C1639.77 705.012 1638.46 703.7 1636.84 703.7C1635.22 703.7 1633.91 705.012 1633.91 706.63C1633.91 708.248 1635.22 709.56 1636.84 709.56Z" fill="#918C9E"/>
<path d="M1636.84 738.37C1638.46 738.37 1639.77 737.058 1639.77 735.44C1639.77 733.822 1638.46 732.51 1636.84 732.51C1635.22 732.51 1633.91 733.822 1633.91 735.44C1633.91 737.058 1635.22 738.37 1636.84 738.37Z" fill="#918C9E"/>
<path d="M1636.84 767.18C1638.46 767.18 1639.77 765.868 1639.77 764.25C1639.77 762.632 1638.46 761.32 1636.84 761.32C1635.22 761.32 1633.91 762.632 1633.91 764.25C1633.91 765.868 1635.22 767.18 1636.84 767.18Z" fill="#918C9E"/>
<path d="M1636.84 795.99C1638.46 795.99 1639.77 794.678 1639.77 793.06C1639.77 791.442 1638.46 790.13 1636.84 790.13C1635.22 790.13 1633.91 791.442 1633.91 793.06C1633.91 794.678 1635.22 795.99 1636.84 795.99Z" fill="#918C9E"/>
<path d="M1636.84 824.8C1638.46 824.8 1639.77 823.488 1639.77 821.87C1639.77 820.252 1638.46 818.94 1636.84 818.94C1635.22 818.94 1633.91 820.252 1633.91 821.87C1633.91 823.488 1635.22 824.8 1636.84 824.8Z" fill="#918C9E"/>
<path d="M1686.95 853H1177.64L1189.23 838.75H1675.69L1686.95 853Z" fill="#DDA2A6"/>
<path opacity="0.1" d="M1686.95 853H1177.64L1189.23 838.75H1675.69L1686.95 853Z" fill="black"/>
<path d="M1686.95 852.33H1177.64L1189.23 838.09H1675.69L1686.95 852.33Z" fill="#DDA2A6"/>
<path d="M1704.83 875.18L1158.43 873.86L1176.98 854.32H1688.94L1704.83 875.18Z" fill="#DDA2A6"/>
<path opacity="0.1" d="M1704.83 875.18L1158.43 873.86L1176.98 854.32H1688.94L1704.83 875.18Z" fill="black"/>
<path d="M1704.83 874.52L1158.43 873.2L1176.98 853.66H1688.94L1704.83 874.52Z" fill="#DDA2A6"/>
<path d="M1722.05 895.38H1138.89L1156.78 875.18L1706.16 875.84L1722.05 895.38Z" fill="#DDA2A6"/>
<path d="M1227.53 914.26V955.98L1220.36 969.89L1217.99 920.22L1217.71 914.26H1227.53Z" fill="#B77B7F"/>
<path d="M1636.62 914.26L1636.33 920.22L1633.97 969.89L1626.79 955.98V914.26H1636.62Z" fill="#B77B7F"/>
<path opacity="0.1" d="M1227.53 914.26V955.98L1220.36 969.89L1217.99 920.22L1217.71 914.26H1227.53Z" fill="black"/>
<path opacity="0.1" d="M1636.62 914.26L1636.33 920.22L1633.97 969.89L1626.79 955.98V914.26H1636.62Z" fill="black"/>
<path d="M1220.35 910.95H1201.81V969.9H1220.35V910.95Z" fill="#B77B7F"/>
<path d="M1652.51 910.95H1633.97V969.9H1652.51V910.95Z" fill="#B77B7F"/>
<path opacity="0.1" d="M1220.36 914.26H1227.53V920.22H1201.81V910.95H1220.36V914.26Z" fill="black"/>
<path opacity="0.1" d="M1652.51 910.95V920.22H1626.79V914.26H1633.97V910.95H1652.51Z" fill="black"/>
<path d="M1675.69 904.32H1177.64V918.89H1675.69V904.32Z" fill="#B77B7F"/>
<path d="M1183.6 901.67H1162.41V1029.83H1183.6V901.67Z" fill="#B77B7F"/>
<path d="M1669.08 1029.83H1690.27V901.67H1669.08V1029.83Z" fill="#B77B7F"/>
<path opacity="0.1" d="M1675.69 904.32H1177.64V905.64H1675.69V904.32Z" fill="black"/>
<path d="M1722.05 895.38H1138.89V904.32H1722.05V895.38Z" fill="#DDA2A6"/>
<path opacity="0.1" d="M1722.05 895.38H1138.89V904.32H1722.05V895.38Z" fill="white"/>
<path opacity="0.1" d="M1171.74 915.2C1173.36 915.2 1174.67 913.888 1174.67 912.27C1174.67 910.652 1173.36 909.34 1171.74 909.34C1170.12 909.34 1168.81 910.652 1168.81 912.27C1168.81 913.888 1170.12 915.2 1171.74 915.2Z" fill="black"/>
<path d="M1171.74 913.88C1173.36 913.88 1174.67 912.568 1174.67 910.95C1174.67 909.332 1173.36 908.02 1171.74 908.02C1170.12 908.02 1168.81 909.332 1168.81 910.95C1168.81 912.568 1170.12 913.88 1171.74 913.88Z" fill="#918C9E"/>
<path opacity="0.1" d="M1681.4 914.8C1683.02 914.8 1684.33 913.488 1684.33 911.87C1684.33 910.252 1683.02 908.94 1681.4 908.94C1679.78 908.94 1678.47 910.252 1678.47 911.87C1678.47 913.488 1679.78 914.8 1681.4 914.8Z" fill="black"/>
<path d="M1681.4 913.48C1683.02 913.48 1684.33 912.168 1684.33 910.55C1684.33 908.932 1683.02 907.62 1681.4 907.62C1679.78 907.62 1678.47 908.932 1678.47 910.55C1678.47 912.168 1679.78 913.48 1681.4 913.48Z" fill="#918C9E"/>
<path opacity="0.1" d="M678.08 957.79C703.993 957.79 725 954.907 725 951.35C725 947.793 703.993 944.91 678.08 944.91C652.167 944.91 631.16 947.793 631.16 951.35C631.16 954.907 652.167 957.79 678.08 957.79Z" fill="#FF62C0"/>
<path opacity="0.1" d="M857.82 976.01C883.734 976.01 904.74 973.127 904.74 969.57C904.74 966.013 883.734 963.13 857.82 963.13C831.907 963.13 810.9 966.013 810.9 969.57C810.9 973.127 831.907 976.01 857.82 976.01Z" fill="#FF62C0"/>
<path opacity="0.1" d="M1069.53 951.35C1095.44 951.35 1116.45 948.467 1116.45 944.91C1116.45 941.353 1095.44 938.47 1069.53 938.47C1043.62 938.47 1022.61 941.353 1022.61 944.91C1022.61 948.467 1043.62 951.35 1069.53 951.35Z" fill="#FF62C0"/>
<path opacity="0.1" d="M785.88 1026.04C804.304 1026.04 819.24 1023.99 819.24 1021.46C819.24 1018.93 804.304 1016.88 785.88 1016.88C767.455 1016.88 752.52 1018.93 752.52 1021.46C752.52 1023.99 767.455 1026.04 785.88 1026.04Z" fill="#FF62C0"/>
<path opacity="0.1" d="M972.43 1021.46C990.855 1021.46 1005.79 1019.41 1005.79 1016.88C1005.79 1014.35 990.855 1012.3 972.43 1012.3C954.006 1012.3 939.07 1014.35 939.07 1016.88C939.07 1019.41 954.006 1021.46 972.43 1021.46Z" fill="#FF62C0"/>
<path d="M990.81 1006.47C992.81 1004.63 994.63 1002.47 995.2 999.85C995.77 997.23 994.64 994.06 992.13 993.1C989.32 992.03 986.31 993.98 984.03 995.95C981.75 997.92 979.13 1000.17 976.15 999.75C977.677 998.353 978.816 996.584 979.458 994.616C980.099 992.649 980.221 990.549 979.81 988.52C979.683 987.685 979.338 986.899 978.81 986.24C977.24 984.57 974.41 985.29 972.54 986.6C966.54 990.79 964.93 998.87 964.89 1006.15C964.29 1003.53 964.8 1000.79 964.78 998.1C964.76 995.41 964.03 992.42 961.78 990.98C960.367 990.216 958.776 989.84 957.17 989.89C954.49 989.79 951.51 990.06 949.69 992.02C947.42 994.45 948.01 998.53 949.98 1001.21C951.95 1003.89 954.98 1005.56 957.72 1007.41C959.941 1008.73 961.835 1010.54 963.26 1012.69C963.425 1012.99 963.562 1013.31 963.67 1013.63H980.44C984.203 1011.72 987.691 1009.31 990.81 1006.47Z" fill="#FF62C0"/>
<path d="M697.1 943.32C699.1 941.49 700.92 939.32 701.49 936.7C702.06 934.08 700.94 930.92 698.42 929.95C695.61 928.88 692.6 930.83 690.32 932.8C688.04 934.77 685.42 937.02 682.44 936.6C683.976 935.208 685.124 933.442 685.775 931.474C686.425 929.506 686.554 927.403 686.15 925.37C686.021 924.536 685.676 923.75 685.15 923.09C683.58 921.42 680.75 922.14 678.88 923.46C672.88 927.64 671.27 935.73 671.24 943C670.64 940.38 671.14 937.64 671.13 935C671.12 932.36 670.37 929.32 668.13 927.88C666.717 927.116 665.126 926.74 663.52 926.79C660.85 926.7 657.87 926.96 656.04 928.92C653.77 931.35 654.36 935.43 656.33 938.11C658.3 940.79 661.33 942.46 664.08 944.31C666.296 945.634 668.185 947.438 669.61 949.59C669.774 949.891 669.911 950.205 670.02 950.53H686.79C690.534 948.6 694.002 946.175 697.1 943.32V943.32Z" fill="#FF62C0"/>
<path d="M794.981 1006.47C796.981 1004.63 798.801 1002.47 799.371 999.85C799.941 997.23 798.821 994.06 796.301 993.1C793.491 992.03 790.481 993.98 788.201 995.95C785.921 997.92 783.301 1000.17 780.321 999.75C781.856 998.358 783.005 996.592 783.655 994.624C784.306 992.656 784.435 990.553 784.031 988.52C783.904 987.685 783.559 986.899 783.031 986.24C781.461 984.57 778.631 985.29 776.761 986.6C770.811 990.79 769.151 998.87 769.121 1006.15C768.521 1003.53 769.021 1000.79 769.011 998.1C769.001 995.41 768.251 992.42 766.011 990.98C764.597 990.216 763.007 989.84 761.401 989.89C758.731 989.79 755.751 990.06 753.921 992.02C751.651 994.45 752.241 998.53 754.211 1001.21C756.181 1003.89 759.211 1005.56 761.961 1007.41C764.179 1008.73 766.069 1010.54 767.491 1012.69C767.659 1012.99 767.797 1013.3 767.901 1013.63H784.611C788.373 1011.72 791.861 1009.31 794.981 1006.47V1006.47Z" fill="#FF62C0"/>
<path d="M1072.57 878.82C1072.57 878.82 1078.86 887.04 1069.67 899.45C1060.48 911.86 1052.91 922.34 1055.97 930.08C1055.97 930.08 1069.83 907.08 1081.12 906.71C1092.41 906.34 1084.99 892.68 1072.57 878.82Z" fill="#FF62C0"/>
<path opacity="0.1" d="M1072.57 878.82C1073.12 879.614 1073.56 880.483 1073.86 881.4C1084.86 894.33 1090.73 906.4 1080.15 906.71C1070.29 906.99 1058.47 924.62 1055.63 929.07C1055.73 929.41 1055.84 929.75 1055.97 930.07C1055.97 930.07 1069.83 907.07 1081.12 906.7C1092.41 906.33 1084.99 892.68 1072.57 878.82Z" fill="black"/>
<path d="M1084.26 889.3C1084.26 892.19 1083.94 894.54 1083.54 894.54C1083.14 894.54 1082.81 892.19 1082.81 889.3C1082.81 886.41 1083.22 887.76 1083.62 887.76C1084.02 887.76 1084.26 886.4 1084.26 889.3Z" fill="#FFD037"/>
<path d="M1088.27 892.75C1085.73 894.14 1083.52 894.97 1083.27 894.62C1083.02 894.27 1084.99 892.86 1087.53 891.48C1090.07 890.1 1089.07 891.1 1089.26 891.48C1089.45 891.86 1090.81 891.37 1088.27 892.75Z" fill="#FFD037"/>
<path d="M1039.36 878.82C1039.36 878.82 1033.08 887.04 1042.27 899.45C1051.46 911.86 1059.03 922.34 1055.97 930.08C1055.97 930.08 1042.1 907.08 1030.82 906.71C1019.54 906.34 1026.95 892.68 1039.36 878.82Z" fill="#FF62C0"/>
<path opacity="0.1" d="M1039.36 878.82C1038.81 879.616 1038.38 880.484 1038.08 881.4C1027.08 894.33 1021.2 906.4 1031.79 906.71C1041.65 906.99 1053.47 924.62 1056.3 929.07C1056.21 929.409 1056.1 929.743 1055.97 930.07C1055.97 930.07 1042.1 907.07 1030.82 906.7C1019.54 906.33 1026.95 892.68 1039.36 878.82Z" fill="black"/>
<path d="M1027.68 889.3C1027.68 892.19 1028 894.54 1028.4 894.54C1028.8 894.54 1029.13 892.19 1029.13 889.3C1029.13 886.41 1028.72 887.76 1028.32 887.76C1027.92 887.76 1027.68 886.4 1027.68 889.3Z" fill="#FFD037"/>
<path d="M1023.67 892.75C1026.21 894.14 1028.42 894.97 1028.61 894.62C1028.8 894.27 1026.9 892.86 1024.36 891.48C1021.82 890.1 1022.82 891.1 1022.63 891.48C1022.44 891.86 1021.13 891.37 1023.67 892.75Z" fill="#FFD037"/>
<path d="M1029.68 929.01C1029.68 929.01 1047.26 928.47 1052.55 924.69C1057.84 920.91 1079.55 916.42 1080.91 922.47C1082.27 928.52 1107.33 952.56 1087.48 952.72C1067.63 952.88 1041.37 949.63 1036.08 946.4C1030.79 943.17 1029.68 929.01 1029.68 929.01Z" fill="#A8A8A8"/>
<path opacity="0.2" d="M1087.81 950.61C1067.97 950.77 1041.7 947.52 1036.41 944.3C1032.41 941.85 1030.78 933.04 1030.25 928.98H1029.66C1029.66 928.98 1030.77 943.15 1036.06 946.37C1041.35 949.59 1067.61 952.85 1087.46 952.69C1093.19 952.69 1095.17 950.6 1095.06 947.58C1094.28 949.44 1092.1 950.58 1087.81 950.61Z" fill="black"/>
<path d="M1545.75 876.95L1546.34 876.74C1546.34 876.74 1546.06 863.95 1539.13 857.13C1532.2 850.31 1536.54 828.95 1536.54 828.95C1536.54 828.95 1537.12 806.49 1533.94 801.09C1530.76 795.69 1533.94 775.5 1533.94 775.5V744.83C1533.94 744.83 1531.35 736.83 1530.77 714.98C1530.19 693.13 1527.89 695.98 1523.56 689.68C1521.32 686.43 1511.78 683.04 1503 680.6C1497.13 674.577 1490.81 669.011 1484.1 663.95C1486.62 661.063 1489.76 658.783 1493.28 657.28C1496.39 655.81 1499.96 654.28 1501.23 651.14C1501.79 649.307 1501.91 647.367 1501.57 645.48C1501.4 642.474 1500.82 639.504 1499.86 636.65C1498.86 633.753 1496.76 631.368 1494.01 630.02C1492.5 629.36 1490.54 628.9 1490.1 627.33C1489.97 626.703 1489.99 626.053 1490.18 625.44C1490.86 622.36 1491.98 619.33 1491.91 616.18C1491.84 612.69 1490.31 609.39 1488.68 606.29C1484.57 598.46 1479.34 590.74 1471.51 586.47C1461.68 581.11 1449.51 582.16 1438.65 584.86C1435.72 585.734 1432.7 586.294 1429.65 586.53C1427.81 586.443 1425.96 586.487 1424.13 586.66C1423.09 586.839 1422.07 587.176 1421.13 587.66C1421.33 587.46 1421.53 587.24 1421.75 587.05C1419.93 587.9 1418.3 589.111 1416.97 590.61C1415.52 592.076 1414.49 593.897 1413.97 595.89C1413.8 596.542 1413.72 597.215 1413.73 597.89C1413.88 599.793 1414.57 601.612 1415.73 603.13C1414.28 603.849 1412.87 604.644 1411.5 605.51C1410.81 605.883 1410.21 606.406 1409.75 607.04C1409.61 607.274 1409.5 607.527 1409.42 607.79C1408.94 608.882 1408.71 610.068 1408.75 611.26C1408.75 611.41 1408.75 611.56 1408.68 611.7C1408.8 611.48 1408.9 611.26 1409 611.03C1407.86 618.03 1399.22 622.42 1396.79 628.78C1396.13 630.095 1395.79 631.548 1395.79 633.02C1395.9 638.14 1400.43 641.94 1402.89 646.44C1407 653.97 1405.16 663.12 1404 671.59C1403.84 672.79 1403.71 674.03 1403.63 675.28C1397.54 676.28 1390.92 678.4 1386.87 682.64C1377.79 692.17 1381.87 684.06 1375.34 705.1L1368.85 726.1L1367.98 741.31C1367.98 741.31 1362.98 746.31 1363.37 751.69C1363.76 757.07 1361.21 759.69 1361.21 759.69C1361.21 759.69 1360.63 770.92 1361.21 773.62C1361.79 776.32 1356.88 779.02 1357.21 781.44C1357.36 784.104 1357.36 786.775 1357.21 789.44C1357.21 789.87 1352.88 790.58 1353.32 795.55C1353.58 798.482 1353.67 801.427 1353.6 804.37C1353.6 804.37 1346.4 811.9 1347.84 816.02C1349.28 820.14 1346.54 827.11 1346.54 827.11C1346.54 827.11 1344.95 836.21 1341.06 838.63C1337.89 840.63 1335.39 848.02 1334.57 850.72C1331.67 850.82 1289.8 852.43 1291.19 858.01C1292.63 863.79 1332.14 865.59 1336.75 865.59C1336.95 865.585 1337.15 865.565 1337.35 865.53C1336.27 872.53 1333.49 886.3 1328.23 888.53C1321.16 891.53 1308.33 904.45 1308.91 910.14C1309.49 915.83 1306.6 950.23 1304.72 955.06C1304.33 956.06 1304.11 959.06 1304.12 963.18C1295 978.98 1288.27 991.83 1286.49 995.25L1286.03 996.14L1285.49 997.56C1284.26 996.71 1275.32 1008.09 1275.32 1008.09C1275.32 1008.09 1267.97 1020.6 1267.68 1022.3C1267.39 1024 1261.76 1025.14 1261.48 1026.42C1261.2 1027.7 1254.56 1035.95 1254.56 1035.95C1254.56 1035.95 1250.81 1045.61 1244.17 1048.17C1237.53 1050.73 1230.48 1056.99 1239.56 1064.1C1248.64 1071.21 1266.81 1075.18 1266.81 1075.18C1266.81 1075.18 1278.35 1063.38 1280.65 1057.84C1282.95 1052.3 1289.59 1043.06 1289.59 1043.06C1289.59 1043.06 1293.59 1035.06 1294.21 1032.06C1294.83 1029.06 1308.14 1008.95 1308.14 1008.95L1306.7 1008.39C1307.25 1007.79 1307.88 1007.13 1308.58 1006.39C1309.07 1005.88 1309.58 1005.33 1310.15 1004.78C1311.69 1008.56 1313.55 1011.13 1315.78 1011.64C1326.45 1014.06 1334.09 1001.12 1339 999.84C1343.91 998.56 1349.23 981.95 1349.23 981.95C1349.23 981.95 1363.8 969.72 1363.94 959.95C1363.94 957.8 1364.02 955.51 1364.07 953.25C1366.53 948.358 1369.33 943.646 1372.45 939.15C1377.84 931.95 1382.06 924.93 1384.76 923.42C1386.76 922.32 1399.18 909.96 1405.76 903.33L1406.44 902.64C1408.44 907 1410.74 910.08 1413.36 910.15C1415.36 910.21 1416.98 907.3 1418.26 903.15C1418.39 903.417 1418.53 903.687 1418.68 903.96C1422.29 910.47 1428.93 915.96 1428.93 915.96C1428.93 915.96 1447.39 941.83 1445.8 945.96C1444.21 950.09 1459.21 967.42 1467.8 972.54C1474.72 976.64 1492.8 997.19 1499.71 1005.18L1500.71 1006.36C1500.21 1006.55 1499.69 1006.69 1499.16 1006.75C1496.76 1006.84 1502.53 1013.19 1502.53 1013.19C1502.53 1013.19 1507.04 1019.35 1506.85 1022.39C1506.66 1025.43 1512.52 1032.72 1512.52 1032.72C1512.52 1032.72 1522.52 1049.72 1521.85 1055.56C1521.18 1061.4 1515.41 1076.88 1529.06 1073.85C1542.71 1070.82 1557.32 1069.3 1557.06 1062.38C1556.8 1055.46 1550.91 1043.38 1550.91 1043.38L1544.85 1031.24C1544.85 1031.24 1538.8 1023.38 1536.1 1017.98C1533.4 1012.58 1525.05 995.23 1525.05 995.23L1522.05 996.5L1521.41 995.14C1518.31 988.59 1510.81 972.5 1501.73 951.6C1498.33 943.539 1494.32 935.749 1489.73 928.3L1501.73 925.77C1515.55 938.67 1548.02 942.63 1548.02 942.63C1548.02 942.63 1546.02 910.51 1549.18 901.12C1550.82 896.26 1548.36 893.46 1545.45 891.12C1558.45 890.37 1581.63 888.28 1582.73 883.88C1583.83 879.48 1558.16 877.63 1545.75 876.95ZM1509.58 869.12C1507.01 868.94 1505.11 868.92 1505.11 868.92C1505.11 868.92 1506.26 863.67 1507.99 860.82C1509.72 857.97 1497.61 850.3 1498.38 843.19C1499.15 836.08 1494.44 821.3 1494.44 821.3C1494.44 821.3 1495.01 805.95 1494.44 798.84C1494.09 794.601 1494.99 790.352 1497.03 786.62C1497.03 786.62 1503.95 805.1 1501.03 807.62C1498.11 810.14 1501.03 823.82 1501.03 823.82C1501.03 823.82 1506.22 842.02 1508.81 848.56C1510.34 852.34 1509.81 861.18 1509.58 869.13V869.12Z" fill="url(#paint0_linear)"/>
<path d="M1336.93 853.95C1336.93 853.95 1293.21 855.44 1294.61 861.14C1296.01 866.84 1334.41 868.61 1338.89 868.61C1343.37 868.61 1349.81 860.4 1349.81 860.4L1336.93 853.95Z" fill="#EFB7B9"/>
<path d="M1389.29 834H1364.07V857.25H1389.29V834Z" fill="#67647E"/>
<path opacity="0.12" d="M1389.29 834H1364.07V857.25H1389.29V834Z" fill="black"/>
<path d="M1350.65 858.15L1327.45 904.99L1356.86 914.53L1380.6 894.16L1391.82 872.42L1414.54 874.27L1438.79 886.34L1458.39 898.31L1470.25 920.49L1487.25 930.1L1523.7 922.32L1529.02 897.53L1499.28 877.61L1488.5 861.29L1444.8 854.93L1432.15 836.07L1388.43 846.62L1350.65 858.15Z" fill="#67647E"/>
<path opacity="0.12" d="M1350.65 858.59L1326.97 909.62L1356.86 914.97L1380.6 894.6L1391.82 872.86L1414.54 874.7L1438.79 886.78L1458.39 898.74L1470.25 920.93L1487.25 930.53L1523.7 922.75L1529.02 897.96L1499.28 878.05L1488.5 861.72L1444.8 855.37L1432.15 836.5L1388.43 847.05L1350.65 858.59Z" fill="black"/>
<path d="M1411.53 612.3C1410.86 612.668 1410.27 613.184 1409.83 613.81C1409.36 614.894 1409.13 616.069 1409.17 617.25C1408.28 625.69 1396.44 630.25 1396.62 638.7C1396.72 643.7 1401.13 647.48 1403.52 651.92C1407.52 659.34 1405.72 668.37 1404.6 676.72C1403.75 683.05 1403.75 690.48 1408.6 694.64C1410.6 696.34 1413.19 697.27 1415 699.16C1418.7 703.02 1417.89 709.35 1420.33 714.16C1420.57 714.674 1420.91 715.136 1421.33 715.52C1421.75 715.853 1422.23 716.1 1422.75 716.25C1427.46 717.8 1432.84 715.6 1436.02 711.8C1439.2 708 1440.46 702.91 1440.63 697.95C1440.8 692.99 1440 688.08 1439.52 683.15C1438.61 673.67 1438.92 664.15 1438.15 654.63C1438.06 651.614 1437.38 648.644 1436.15 645.89C1435.42 644.47 1434.43 643.19 1433.74 641.75C1432.89 639.754 1432.35 637.645 1432.12 635.49L1429.48 618.78C1428.96 615.44 1428.48 609.45 1424.65 608.16C1420.82 606.87 1414.65 610.32 1411.53 612.3Z" fill="#E3787D"/>
<path d="M1411.53 612.3C1410.86 612.668 1410.27 613.184 1409.83 613.81C1409.36 614.894 1409.13 616.069 1409.17 617.25C1408.28 625.69 1396.44 630.25 1396.62 638.7C1396.72 643.7 1401.13 647.48 1403.52 651.92C1407.52 659.34 1405.72 668.37 1404.6 676.72C1403.75 683.05 1403.75 690.48 1408.6 694.64C1410.6 696.34 1413.19 697.27 1415 699.16C1418.7 703.02 1417.89 709.35 1420.33 714.16C1420.57 714.674 1420.91 715.136 1421.33 715.52C1421.75 715.853 1422.23 716.1 1422.75 716.25C1427.46 717.8 1432.84 715.6 1436.02 711.8C1439.2 708 1440.46 702.91 1440.63 697.95C1440.8 692.99 1440 688.08 1439.52 683.15C1438.61 673.67 1438.92 664.15 1438.15 654.63C1438.06 651.614 1437.38 648.644 1436.15 645.89C1435.42 644.47 1434.43 643.19 1433.74 641.75C1432.89 639.754 1432.35 637.645 1432.12 635.49L1429.48 618.78C1428.96 615.44 1428.48 609.45 1424.65 608.16C1420.82 606.87 1414.65 610.32 1411.53 612.3Z" fill="#383636"/>
<g opacity="0.1">
<path opacity="0.1" d="M1409.97 614.61C1409.97 614.38 1409.97 614.15 1410.03 613.92C1409.83 614.103 1409.66 614.311 1409.51 614.54C1409.03 615.611 1408.79 616.776 1408.81 617.95C1408.81 618.09 1408.81 618.23 1408.75 618.38C1409.39 617.211 1409.8 615.932 1409.97 614.61V614.61Z" fill="black"/>
<path opacity="0.1" d="M1436.81 709.11C1433.64 712.91 1428.25 715.11 1423.55 713.56C1423.01 713.427 1422.51 713.168 1422.09 712.805C1421.67 712.442 1421.34 711.984 1421.13 711.47C1418.68 706.71 1419.49 700.39 1415.79 696.52C1413.98 694.64 1411.38 693.71 1409.39 692C1404.54 687.84 1404.54 680.42 1405.39 674.08C1406.51 665.73 1408.31 656.7 1404.31 649.29C1401.92 644.84 1397.52 641.1 1397.41 636.06C1397.4 635.588 1397.43 635.117 1397.5 634.65C1396.69 636.107 1396.27 637.752 1396.29 639.42C1396.39 644.42 1400.8 648.21 1403.19 652.65C1407.19 660.07 1405.39 669.09 1404.27 677.44C1403.42 683.78 1403.42 691.2 1408.27 695.37C1410.27 697.07 1412.86 698 1414.67 699.89C1418.37 703.75 1417.56 710.08 1420 714.83C1420.24 715.347 1420.58 715.812 1421 716.2C1421.42 716.532 1421.91 716.776 1422.43 716.92C1427.13 718.47 1432.52 716.27 1435.69 712.47C1437.52 710.203 1438.81 707.549 1439.46 704.71C1438.8 706.299 1437.9 707.782 1436.81 709.11V709.11Z" fill="black"/>
</g>
<path d="M1535.56 879.5C1535.56 879.5 1579.27 881 1577.87 886.69C1576.47 892.38 1538.08 894.17 1533.59 894.17C1529.1 894.17 1522.67 885.95 1522.67 885.95L1535.56 879.5Z" fill="#EFB7B9"/>
<path d="M1417.89 680.2C1417.89 680.2 1396.46 678.94 1387.64 688.33C1378.82 697.72 1382.73 689.73 1376.43 710.47L1370.12 731.21L1369.28 746.21C1369.28 746.21 1364.38 751.11 1364.8 756.44C1365.22 761.77 1362.69 764.29 1362.69 764.29C1362.69 764.29 1362.13 775.36 1362.69 778.02C1363.25 780.68 1358.49 783.34 1358.77 785.72C1358.92 788.335 1358.92 790.955 1358.77 793.57C1358.77 793.99 1354.57 794.69 1354.99 799.57C1355.24 802.456 1355.34 805.354 1355.27 808.25C1355.27 808.25 1348.27 815.68 1349.66 819.74C1351.05 823.8 1348.4 830.67 1348.4 830.67C1348.4 830.67 1346.86 839.67 1343.08 842.02C1339.3 844.37 1336.49 854.95 1336.49 854.95C1336.49 854.95 1339.99 864.06 1339.99 864.48C1339.99 864.9 1337.47 888.3 1330.61 891.24C1323.75 894.18 1311.27 906.95 1311.81 912.52C1312.35 918.09 1309.57 952.04 1307.75 956.8C1305.93 961.56 1308.03 1010.19 1318.4 1012.57C1328.77 1014.95 1336.21 1002.2 1340.98 1000.95C1345.75 999.7 1350.92 983.29 1350.92 983.29C1350.92 983.29 1365.08 971.24 1365.22 961.58C1365.36 951.92 1365.78 939.58 1365.78 939.58C1365.78 939.58 1349.24 911.58 1345.88 909.45C1342.52 907.32 1333.13 895.45 1340.41 885.21C1347.69 874.97 1352.33 861.95 1352.33 861.95L1360.17 854.95L1366.81 829.85L1378.81 790.62L1390.16 752.08L1399.81 711.59L1425.28 693.85C1425.28 693.85 1429.81 682.3 1417.89 680.2Z" fill="#67647E"/>
<path d="M1409.91 901.64C1409.91 901.64 1408.3 903.3 1405.91 905.75C1399.48 912.28 1387.37 924.47 1385.46 925.55C1382.84 927.05 1378.74 933.96 1373.46 941.06C1368.18 948.16 1361.13 963.48 1361.13 963.48C1361.13 963.48 1343.57 988.14 1333.3 990.76C1326.3 992.53 1316.8 1001.68 1311.4 1007.4C1308.81 1010.12 1307.16 1012.06 1307.16 1012.06L1286.96 1004.21L1289.58 997.3L1290.03 996.41C1291.97 992.63 1299.96 977.15 1310.5 958.99C1322.65 938.08 1341.15 918.83 1341.15 918.83C1341.15 918.83 1357.21 904.07 1357.77 897.34C1357.96 893.607 1357.91 889.865 1357.6 886.14C1357.3 881.3 1356.84 877.14 1356.84 877.14L1381.31 861.27L1400 869.07L1409.91 901.64Z" fill="#EFB7B9"/>
<path d="M1519.81 999.54L1499.91 1009.35L1497.26 1006.21C1490.55 998.34 1472.98 978.08 1466.26 974.04C1457.81 968.95 1443.26 951.95 1444.81 947.84C1446.36 943.73 1428.42 918.27 1428.42 918.27C1428.42 918.27 1421.96 912.82 1418.42 906.4C1416.7 903.27 1415.69 899.91 1416.48 896.84C1418.85 887.44 1426.7 866.84 1426.7 866.84C1426.7 866.84 1430.49 860.53 1430.76 860.1C1431.03 859.67 1444.81 854.95 1444.81 854.95L1458.4 853.55L1475.5 868.12C1475.5 868.12 1474.87 871.59 1473.93 876.41C1471.85 887.02 1468.25 904.2 1466.52 905.26C1464.01 906.8 1478.17 918.26 1478.17 918.26C1478.17 918.26 1487.55 926.26 1499.17 953.43C1507.99 974.04 1515.27 989.9 1518.29 996.36C1519.24 998.43 1519.81 999.54 1519.81 999.54Z" fill="#EFB7B9"/>
<path opacity="0.1" d="M1400.02 869.09L1409.91 901.64C1409.91 901.64 1408.3 903.3 1405.91 905.75C1403.21 899.13 1401.14 890.28 1399.66 884.27C1397.04 873.62 1370.14 876.42 1365.47 876.42C1363.41 876.42 1360.52 881.13 1357.64 886.14C1357.34 881.3 1356.88 877.14 1356.88 877.14L1381.35 861.27L1400.02 869.09Z" fill="black"/>
<path opacity="0.1" d="M1475.49 868.1C1475.49 868.1 1474.86 871.57 1473.92 876.39C1471.9 871.783 1468.93 867.653 1465.21 864.27C1452.14 852.69 1434.77 862.59 1434.77 862.59C1432.98 863.25 1432.11 865.1 1430.17 867.39C1424.53 874.128 1421.23 882.509 1420.75 891.28C1420.46 896.381 1419.69 901.443 1418.45 906.4C1416.73 903.27 1415.72 899.91 1416.51 896.84C1418.88 887.44 1426.73 866.84 1426.73 866.84C1426.73 866.84 1430.52 860.53 1430.79 860.1C1431.06 859.67 1444.81 854.95 1444.81 854.95L1458.4 853.55L1475.49 868.1Z" fill="black"/>
<path d="M1495.86 881.28C1495.67 885.95 1478.29 893.28 1478.29 893.28C1478.29 893.28 1478.29 873.66 1465.21 862.07C1452.13 850.48 1434.81 860.35 1434.81 860.35C1433.02 861.01 1432.15 862.86 1430.21 865.15C1424.58 871.886 1421.27 880.262 1420.79 889.03C1420.19 898.97 1417.48 912.6 1413.32 912.47C1406.78 912.29 1402.32 892.68 1399.68 882.03C1397.04 871.38 1370.16 874.18 1365.49 874.18C1360.82 874.18 1351.85 898.46 1348.49 895.48C1345.13 892.5 1352.22 869.09 1352.22 869.09L1374.81 841.86L1379.63 836.07L1478.83 841.43C1478.83 841.43 1481.3 845.24 1483.72 849.01C1486.01 852.6 1488.27 856.16 1488.36 856.42C1488.57 856.95 1496.04 876.6 1495.86 881.28Z" fill="black"/>
<path opacity="0.1" d="M1395.48 851.5C1395.62 851.71 1413.7 871.33 1414.54 874.27C1415.28 877.571 1415.84 880.909 1416.23 884.27C1416.23 884.27 1416.64 877.33 1417.23 875.37C1417.82 873.41 1415.13 868.86 1413.17 867.37C1411.21 865.88 1407.56 863.1 1407.07 861.91C1406.58 860.72 1404.27 848.53 1404.27 848.53L1396.7 846.85L1395.48 851.5Z" fill="black"/>
<path opacity="0.1" d="M1429.74 849.54C1429.74 849.54 1418.11 862.85 1418.39 864.81C1418.67 866.77 1429.74 849.54 1429.74 849.54Z" fill="black"/>
<path d="M1489.13 692.39L1475.68 711.08L1438.75 718.55C1438.75 718.55 1401.32 709.21 1426.75 699.49C1429.15 698.657 1431.3 697.213 1432.97 695.3C1437.45 689.93 1435.8 681.82 1432.07 673.92C1426.21 661.47 1415.26 649.52 1415.26 649.52C1415.26 649.52 1467.85 626.26 1461.87 650.52C1460.83 654.737 1460.93 659.155 1462.16 663.32C1465.3 674.32 1475.22 682.98 1482.11 687.89C1484.36 689.533 1486.7 691.035 1489.13 692.39V692.39Z" fill="#EFB7B9"/>
<path opacity="0.1" d="M1489.13 692.39L1475.68 711.08L1438.75 718.55C1438.75 718.55 1401.32 709.21 1426.75 699.49C1429.15 698.657 1431.29 697.213 1432.97 695.3C1438.97 697.96 1445.25 700.07 1448.42 699.12C1448.42 699.12 1469.2 693.03 1482.11 687.92C1484.36 689.552 1486.7 691.045 1489.13 692.39V692.39Z" fill="black"/>
<path opacity="0.1" d="M1483.9 850.08C1478.76 848.509 1473.54 847.231 1468.25 846.25C1463.03 845.33 1458 844.97 1455.87 846.34C1450.64 849.7 1437.94 857.18 1433.45 857.18C1432.19 857.212 1430.96 856.875 1429.89 856.21C1428.82 855.546 1427.97 854.582 1427.45 853.44C1427.45 853.44 1413.62 851.94 1404.65 853.44C1398.65 854.44 1384.55 847.29 1375.81 842.44L1374.81 841.88L1379.63 836.09L1478.83 841.45C1478.83 841.45 1481.3 845.26 1483.72 849.03L1483.9 850.08Z" fill="black"/>
<path d="M1480.17 822.8L1483.9 847.8C1478.76 846.229 1473.53 844.947 1468.25 843.96C1463.03 843.04 1458 842.69 1455.87 844.05C1450.64 847.42 1437.94 854.89 1433.45 854.89C1432.19 854.923 1430.96 854.588 1429.89 853.925C1428.82 853.262 1427.98 852.3 1427.45 851.16C1427.45 851.16 1413.62 849.66 1404.65 851.16C1398.65 852.16 1384.55 845.01 1375.81 840.16C1371.44 837.72 1368.41 835.86 1368.41 835.86L1374.01 816.05L1391.2 797.74L1393.81 771.23L1397.91 740.6L1404.31 721.95L1415.81 694.62L1417.86 689.78C1417.86 689.78 1420.1 691.1 1423.4 692.86C1424.93 693.67 1426.68 694.58 1428.55 695.49C1435.67 698.98 1444.42 702.56 1448.38 701.36C1448.38 701.36 1466.85 695.95 1479.79 691.05C1485.79 688.77 1490.55 686.62 1491.79 685.16C1491.95 684.988 1492.05 684.777 1492.1 684.55C1492.1 684.18 1492.18 684.46 1492.26 685.28C1493.06 693.53 1495.84 756.66 1495.84 756.66L1480.17 822.8Z" fill="#D50C0C"/>
<path opacity="0.1" d="M1495.86 756.66L1480.17 822.8L1483.9 847.8C1478.76 846.229 1473.53 844.947 1468.25 843.96C1467.36 833.71 1466.34 816.4 1469.05 810.62C1472.97 802.21 1475.21 775.62 1475.21 775.62L1479.81 691.05L1480.26 682.87C1480.59 682.64 1485.61 683.57 1491.81 685.16L1492.28 685.28C1493.08 693.53 1495.86 756.66 1495.86 756.66Z" fill="black"/>
<path opacity="0.1" d="M1527.3 883.08C1517.52 886.02 1504.3 889.24 1502.95 885.76C1501.95 883.36 1502.06 877.97 1502.25 872.08C1507.02 872.42 1514.18 873.37 1515.25 875.95C1516.32 878.53 1523.02 880.42 1527.3 883.08Z" fill="black"/>
<path d="M1484.74 682.87C1485.58 682.3 1516.13 689.03 1520.33 695.2C1524.53 701.37 1526.78 698.56 1527.33 720.14C1527.88 741.72 1530.41 749.56 1530.41 749.56V779.83C1530.41 779.83 1527.33 799.73 1530.41 805.05C1533.49 810.37 1532.93 832.51 1532.93 832.51C1532.93 832.51 1528.73 853.51 1535.45 860.26C1542.17 867.01 1542.45 879.59 1542.45 879.59C1542.45 879.59 1509.66 891.36 1507.45 885.76C1505.24 880.16 1508.57 858.3 1506.05 851.85C1503.53 845.4 1498.48 827.47 1498.48 827.47C1498.48 827.47 1495.68 814.02 1498.48 811.47C1501.28 808.92 1494.56 790.73 1494.56 790.73C1492.57 794.417 1491.69 798.604 1492.04 802.78C1492.6 809.78 1492.04 824.92 1492.04 824.92C1492.04 824.92 1496.61 839.49 1495.87 846.5C1495.13 853.51 1506.87 861.07 1505.21 863.87C1503.55 866.67 1502.4 871.87 1502.4 871.87C1502.4 871.87 1518.1 872.02 1519.78 875.94C1521.46 879.86 1534.35 881.77 1535.47 887.26C1536.59 892.75 1548.36 894.44 1545.28 903.69C1542.2 912.94 1544.16 944.6 1544.16 944.6C1544.16 944.6 1487.55 937.6 1493.72 911.81C1499.89 886.02 1529.03 897.52 1529.03 897.52C1529.03 897.52 1505.81 883.8 1492.31 885.48C1478.81 887.16 1473.53 851.85 1473.53 851.85C1473.53 851.85 1469.61 819.06 1473.53 810.66C1477.45 802.26 1479.69 775.66 1479.69 775.66L1484.74 682.87Z" fill="#67647E"/>
<path opacity="0.1" d="M1510.52 866.14C1510.52 866.14 1511.92 863.48 1521.87 865.14C1531.82 866.8 1536.87 864.59 1536.87 864.59C1536.87 864.59 1516.69 873.57 1510.52 866.14Z" fill="black"/>
<path opacity="0.1" d="M1507.72 737.09C1507.58 737.51 1515.01 748.44 1509.4 757.27C1503.79 766.1 1499.17 780.27 1498.19 782.91C1497.21 785.55 1495.86 789.64 1495.86 789.64" fill="black"/>
<path opacity="0.05" d="M1481.38 669.41C1481.38 669.41 1507.72 689.17 1507.58 698.41C1507.58 698.41 1505.06 701.35 1499.58 701.35C1494.1 701.35 1484.31 698.69 1483.19 692.52C1482.07 686.35 1477.86 692.52 1480.25 695.75C1482.64 698.98 1484.03 700.65 1484.03 700.65C1484.03 700.65 1508.96 707.52 1513.73 710.74C1518.5 713.96 1511.73 717.74 1511.73 717.74C1511.73 717.74 1504.73 730.35 1505.15 732.45C1505.57 734.55 1487.91 762.01 1487.91 762.01C1487.91 762.01 1482.03 791.72 1482.31 797.32C1482.59 802.92 1483.01 814.82 1483.01 814.82L1471.81 830.26C1471.81 830.26 1469.07 782.63 1470.89 776.19C1472.71 769.75 1477.61 729.25 1477.61 729.25C1477.61 729.25 1483.22 704.58 1480.98 701.78C1478.74 698.98 1477.98 690.29 1477.98 690.29L1481.38 669.41Z" fill="black"/>
<path d="M1479.13 668.29C1479.13 668.29 1505.48 688.05 1505.34 697.29C1505.34 697.29 1502.81 700.23 1497.34 700.23C1491.87 700.23 1482.07 697.57 1480.95 691.4C1479.83 685.23 1475.62 691.4 1478 694.63C1480.38 697.86 1481.79 699.53 1481.79 699.53C1481.79 699.53 1506.72 706.4 1511.49 709.62C1516.26 712.84 1509.49 716.62 1509.49 716.62C1509.49 716.62 1502.49 729.24 1502.9 731.34C1503.31 733.44 1485.72 760.95 1485.72 760.95C1485.72 760.95 1479.83 790.66 1480.12 796.26C1480.41 801.86 1480.82 813.76 1480.82 813.76L1471.82 829.18C1471.82 829.18 1466.82 781.55 1468.66 775.1C1470.5 768.65 1475.38 728.16 1475.38 728.16C1475.38 728.16 1480.99 703.5 1478.74 700.7C1476.49 697.9 1475.74 689.21 1475.74 689.21L1479.13 668.29Z" fill="#67647E"/>
<path opacity="0.12" d="M1479.13 668.29C1479.13 668.29 1505.48 688.05 1505.34 697.29C1505.34 697.29 1502.81 700.23 1497.34 700.23C1491.87 700.23 1482.07 697.57 1480.95 691.4C1479.83 685.23 1475.62 691.4 1478 694.63C1480.38 697.86 1481.79 699.53 1481.79 699.53C1481.79 699.53 1506.72 706.4 1511.49 709.62C1516.26 712.84 1509.49 716.62 1509.49 716.62C1509.49 716.62 1502.49 729.24 1502.9 731.34C1503.31 733.44 1485.72 760.95 1485.72 760.95C1485.72 760.95 1479.83 790.66 1480.12 796.26C1480.41 801.86 1480.82 813.76 1480.82 813.76L1471.82 829.18C1471.82 829.18 1466.82 781.55 1468.66 775.1C1470.5 768.65 1475.38 728.16 1475.38 728.16C1475.38 728.16 1480.99 703.5 1478.74 700.7C1476.49 697.9 1475.74 689.21 1475.74 689.21L1479.13 668.29Z" fill="black"/>
<path opacity="0.1" d="M1429.53 691.55C1429.35 692.898 1429.02 694.22 1428.53 695.49C1427.53 698.59 1425.89 702.8 1424.53 707.1C1422.53 713.75 1416.42 725.74 1412.76 737.1C1409.1 748.46 1403.66 772.68 1403.66 772.68C1403.66 772.68 1404.78 794.96 1397.36 800.57C1389.94 806.18 1381.52 826.77 1381.52 826.77C1381.52 826.77 1378.86 833.64 1375.75 840.18C1371.38 837.74 1368.35 835.88 1368.35 835.88L1373.95 816.07L1391.14 797.76L1393.81 771.23L1397.91 740.6L1404.31 721.95L1415.81 694.62C1418.91 694.39 1420.97 694.21 1420.97 694.21C1420.97 694.21 1422.02 693.58 1423.4 692.86C1425.97 691.53 1429.62 689.95 1429.53 691.55Z" fill="black"/>
<path opacity="0.05" d="M1416.5 695.34C1416.5 695.34 1390.5 697.55 1384.69 696.88C1378.88 696.21 1381.33 709.35 1381.33 709.35C1381.33 709.35 1376.81 736.11 1377.81 738.95C1378.81 741.79 1384.11 762.77 1380.89 767.82C1377.67 772.87 1367.72 799.07 1367.72 799.07C1367.72 799.07 1364.5 810.7 1361.72 822.33C1358.94 833.96 1352.34 856.23 1350.65 858.2C1348.96 860.17 1334.63 885.95 1336.26 889.95C1337.89 893.95 1359.96 855.95 1364.41 852.55C1368.86 849.15 1377.13 827.89 1377.13 827.89C1377.13 827.89 1385.53 807.29 1392.96 801.69C1400.39 796.09 1399.27 773.8 1399.27 773.8C1399.27 773.8 1404.73 749.56 1408.37 738.21C1412.01 726.86 1418.13 714.87 1420.14 708.21C1422.15 701.55 1424.91 695.21 1425.05 692.65C1425.19 690.09 1416.5 695.34 1416.5 695.34Z" fill="black"/>
<path d="M1418.74 694.22C1418.74 694.22 1392.74 696.43 1386.93 695.76C1381.12 695.09 1383.57 708.23 1383.57 708.23C1383.57 708.23 1379.09 734.99 1380.07 737.79C1381.05 740.59 1386.37 761.61 1383.15 766.66C1379.93 771.71 1369.98 797.95 1369.98 797.95C1369.98 797.95 1366.76 809.58 1363.98 821.21C1361.2 832.84 1354.59 855.12 1352.91 857.09C1351.23 859.06 1336.91 884.87 1338.52 888.91C1340.13 892.95 1362.22 854.84 1366.67 851.48C1371.12 848.12 1379.39 826.82 1379.39 826.82C1379.39 826.82 1387.8 806.22 1395.22 800.62C1402.64 795.02 1401.53 772.73 1401.53 772.73C1401.53 772.73 1406.99 748.49 1410.64 737.14C1414.29 725.79 1420.39 713.8 1422.41 707.14C1424.43 700.48 1427.17 694.14 1427.31 691.58C1427.45 689.02 1418.74 694.22 1418.74 694.22Z" fill="#67647E"/>
<path opacity="0.12" d="M1418.74 694.22C1418.74 694.22 1392.74 696.43 1386.93 695.76C1381.12 695.09 1383.57 708.23 1383.57 708.23C1383.57 708.23 1379.09 734.99 1380.07 737.79C1381.05 740.59 1386.37 761.61 1383.15 766.66C1379.93 771.71 1369.98 797.95 1369.98 797.95C1369.98 797.95 1366.76 809.58 1363.98 821.21C1361.2 832.84 1354.59 855.12 1352.91 857.09C1351.23 859.06 1336.91 884.87 1338.52 888.91C1340.13 892.95 1362.22 854.84 1366.67 851.48C1371.12 848.12 1379.39 826.82 1379.39 826.82C1379.39 826.82 1387.8 806.22 1395.22 800.62C1402.64 795.02 1401.53 772.73 1401.53 772.73C1401.53 772.73 1406.99 748.49 1410.64 737.14C1414.29 725.79 1420.39 713.8 1422.41 707.14C1424.43 700.48 1427.17 694.14 1427.31 691.58C1427.45 689.02 1418.74 694.22 1418.74 694.22Z" fill="black"/>
<path opacity="0.1" d="M1408.65 763.36C1408.65 763.36 1411.85 779.49 1406.55 787.12C1401.25 794.75 1407.11 766.8 1408.65 763.36Z" fill="black"/>
<path opacity="0.1" d="M1466.1 816.68C1466.1 816.68 1451.25 819.34 1446.35 827.19C1441.45 835.04 1466.1 816.68 1466.1 816.68Z" fill="black"/>
<path opacity="0.1" d="M1466.1 832.65C1466.1 832.65 1447.19 838.65 1450.69 840.78C1454.19 842.91 1462.69 839.1 1465.12 839.78C1467.55 840.46 1466.1 832.65 1466.1 832.65Z" fill="black"/>
<path opacity="0.1" d="M1311.42 1007.4C1308.83 1010.12 1307.18 1012.06 1307.18 1012.06L1286.98 1004.21L1289.6 997.3L1290.05 996.41C1290.1 996.392 1290.15 996.392 1290.2 996.41C1291.39 997.23 1300.34 1002.99 1300.34 1002.99L1311.42 1007.4Z" fill="black"/>
<path d="M1299.22 1005.28C1299.22 1005.28 1290.27 999.53 1289.07 998.69C1287.87 997.85 1279.18 1009.07 1279.18 1009.07C1279.18 1009.07 1272.04 1021.4 1271.76 1023.07C1271.48 1024.74 1266.01 1025.87 1265.76 1027.13C1265.51 1028.39 1259.03 1036.52 1259.03 1036.52C1259.03 1036.52 1255.39 1046.05 1248.95 1048.52C1242.51 1050.99 1235.63 1057.21 1244.46 1064.21C1253.29 1071.21 1270.94 1075.14 1270.94 1075.14C1270.94 1075.14 1282.15 1063.51 1284.4 1058.05C1286.65 1052.59 1293.08 1043.48 1293.08 1043.48C1293.08 1043.48 1297.01 1035.63 1297.57 1032.69C1298.13 1029.75 1310.99 1009.95 1310.99 1009.95L1299.22 1005.28Z" fill="black"/>
<path opacity="0.1" d="M1519.81 999.54L1499.91 1009.35L1497.26 1006.21C1500.55 1004.78 1503.75 1003.14 1506.83 1001.31L1518.33 996.37C1519.24 998.43 1519.81 999.54 1519.81 999.54Z" fill="black"/>
<path d="M1507.91 1002.43C1507.91 1002.43 1499.03 1007.67 1496.7 1007.76C1494.37 1007.85 1499.97 1014.11 1499.97 1014.11C1499.97 1014.11 1504.36 1020.18 1504.17 1023.17C1503.98 1026.16 1509.68 1033.35 1509.68 1033.35C1509.68 1033.35 1519.4 1050.07 1518.74 1055.87C1518.08 1061.67 1512.48 1076.87 1525.74 1073.87C1539 1070.87 1553.2 1069.38 1552.92 1062.56C1552.64 1055.74 1546.92 1043.88 1546.92 1043.88L1541.04 1031.88C1541.04 1031.88 1535.15 1024.13 1532.54 1018.8C1529.93 1013.47 1521.81 996.46 1521.81 996.46L1507.91 1002.43Z" fill="black"/>
<g filter="url(#filter0_d)">
<path d="M1427.6 700.5C1440.18 695.69 1437.49 683.4 1431.6 672.21C1425.19 669.806 1419.68 665.491 1415.81 659.85C1412.03 661.48 1408.6 666.03 1410.02 669.78C1410.57 670.933 1411.28 672.006 1412.12 672.97C1418 680.81 1417.21 692.9 1410.36 699.9C1409.29 701 1408 702.17 1408.01 703.71C1408.01 705.61 1410.01 706.85 1411.77 707.49C1414.08 708.328 1416.51 708.813 1418.97 708.93C1418 706.31 1419.95 703.43 1427.6 700.5Z" fill="#383636"/>
</g>
<path opacity="0.1" d="M1507.63 872.15C1507.63 872.15 1521.08 872.68 1525.56 875.67C1528.28 877.517 1530.44 880.082 1531.79 883.08" fill="black"/>
<g opacity="0.1">
<path opacity="0.1" d="M1411.98 673.23C1416.37 679.08 1417.03 687.32 1414.23 694.03C1418.23 687.03 1418 677.52 1413.1 670.98C1412.25 670.021 1411.55 668.947 1411 667.79C1410.56 666.568 1410.56 665.232 1411 664.01C1410.34 664.845 1409.9 665.827 1409.7 666.872C1409.51 667.917 1409.57 668.994 1409.88 670.01C1410.43 671.176 1411.13 672.26 1411.98 673.23V673.23Z" fill="black"/>
<path opacity="0.1" d="M1418.81 706.84C1416.76 706.648 1414.75 706.198 1412.81 705.5C1411.03 704.85 1409.06 703.61 1409.05 701.71C1409.05 701.613 1409.05 701.517 1409.05 701.42C1408.37 702.097 1407.96 703.001 1407.9 703.96C1407.9 705.86 1409.9 707.1 1411.66 707.74C1413.97 708.578 1416.4 709.063 1418.86 709.18C1418.56 708.432 1418.54 707.6 1418.81 706.84V706.84Z" fill="black"/>
<path opacity="0.1" d="M1428.53 698.51C1422.53 700.82 1420.02 703.1 1419.73 705.24C1421.02 703.78 1423.44 702.24 1427.41 700.75C1431.85 699.06 1434.41 696.43 1435.54 693.25C1433.83 695.713 1431.37 697.558 1428.53 698.51V698.51Z" fill="black"/>
</g>
<path opacity="0.1" d="M1462.14 663.35C1457.64 671.66 1442.92 675.58 1442.42 675.58C1438.9 675.593 1435.4 675.043 1432.05 673.95C1426.19 661.5 1415.24 649.55 1415.24 649.55C1415.24 649.55 1467.83 626.29 1461.85 650.55C1460.81 654.767 1460.91 659.185 1462.14 663.35Z" fill="black"/>
<path d="M1475.68 640.08C1475.68 648.438 1472.53 656.49 1466.86 662.633C1461.2 668.776 1453.42 672.559 1445.09 673.23C1444.22 673.3 1443.32 673.34 1442.42 673.34C1435.84 673.34 1429.41 671.389 1423.94 667.735C1418.47 664.08 1414.21 658.886 1411.69 652.808C1409.17 646.731 1408.52 640.043 1409.8 633.591C1411.08 627.139 1414.25 621.213 1418.9 616.562C1423.55 611.91 1429.48 608.742 1435.93 607.459C1442.38 606.176 1449.07 606.834 1455.15 609.352C1461.23 611.869 1466.42 616.132 1470.07 621.602C1473.73 627.071 1475.68 633.502 1475.68 640.08Z" fill="#EFB7B9"/>
<path opacity="0.1" d="M1475.68 640.08C1475.68 648.438 1472.53 656.49 1466.86 662.633C1461.19 668.776 1453.42 672.559 1445.09 673.23C1439.99 669.08 1436.25 663.33 1433.26 657.41C1431.98 654.84 1430.76 652.05 1431.09 649.19C1431.37 646.7 1432.8 644.46 1433.23 641.98C1433.94 637.98 1431.89 633.92 1429.78 630.38C1427.78 627.11 1425.94 623.3 1423.13 620.7C1421.65 619.33 1420.28 617.96 1418.95 616.53C1423.61 611.893 1429.53 608.739 1435.98 607.467C1442.42 606.194 1449.1 606.859 1455.17 609.378C1461.24 611.898 1466.43 616.158 1470.08 621.622C1473.73 627.086 1475.68 633.509 1475.68 640.08V640.08Z" fill="black"/>
<path d="M1417.23 612.1C1415.51 609.95 1413.76 607.55 1413.68 604.8C1413.6 602.24 1414.99 599.86 1416.68 597.96C1418.48 595.801 1420.94 594.299 1423.68 593.69C1425.46 593.522 1427.25 593.478 1429.04 593.56C1432.01 593.344 1434.95 592.804 1437.81 591.95C1448.4 589.29 1460.18 588.25 1469.74 593.54C1477.34 597.74 1482.43 605.35 1486.42 613.07C1488 616.13 1489.49 619.38 1489.56 622.82C1489.63 625.92 1488.56 628.92 1487.88 631.95C1487.7 632.554 1487.68 633.193 1487.8 633.81C1488.23 635.35 1490.13 635.81 1491.6 636.46C1494.28 637.799 1496.33 640.147 1497.29 642.99C1498.22 645.81 1498.78 648.743 1498.94 651.71C1499.27 653.566 1499.16 655.474 1498.62 657.28C1497.39 660.41 1493.92 661.88 1490.89 663.33C1487.45 664.817 1484.39 667.071 1481.96 669.92C1479.66 672.86 1478.45 676.85 1479.54 680.42C1480.1 681.973 1480.96 683.401 1482.08 684.621C1483.19 685.841 1484.53 686.829 1486.03 687.53C1489.02 688.909 1492.18 689.9 1495.43 690.48C1496.85 690.696 1498.21 691.203 1499.43 691.97C1502.29 694.06 1502.2 698.69 1500.01 701.47C1497.82 704.25 1494.19 705.47 1490.69 706C1482.9 707.05 1474.99 705.375 1468.29 701.26C1464.18 698.76 1460.4 695.09 1459.5 690.37C1458.93 687.44 1459.5 684.27 1458.3 681.55C1456.71 678.01 1452.72 676.42 1449.41 674.4C1442.64 670.26 1437.98 663.4 1434.41 656.32C1433.11 653.75 1431.9 650.96 1432.23 648.1C1432.51 645.61 1433.94 643.37 1434.37 640.9C1435.08 636.83 1433.03 632.84 1430.92 629.29C1428.92 626.02 1427.09 622.21 1424.27 619.6C1421.74 617.279 1419.39 614.772 1417.23 612.1V612.1Z" fill="black"/>
<g opacity="0.1">
<path opacity="0.1" d="M1494.34 660.7C1492.27 661.669 1490.31 662.856 1488.49 664.24C1489.31 663.78 1490.14 663.35 1490.98 662.95C1493.1 662.08 1495.08 660.912 1496.86 659.48C1496.02 659.95 1495.17 660.31 1494.34 660.7Z" fill="black"/>
<path opacity="0.1" d="M1494.11 703.37C1486.32 704.419 1478.41 702.744 1471.71 698.63C1467.6 696.13 1463.82 692.46 1462.92 687.74C1462.36 684.81 1462.92 681.64 1461.72 678.92C1460.14 675.38 1456.14 673.79 1452.83 671.77C1446.06 667.63 1441.4 660.77 1437.83 653.69C1436.53 651.12 1435.32 648.33 1435.65 645.47C1435.93 642.98 1437.36 640.74 1437.79 638.27C1438.5 634.2 1436.45 630.21 1434.34 626.66C1432.39 623.39 1430.51 619.58 1427.7 616.97C1425.18 614.659 1422.84 612.162 1420.7 609.5C1418.98 607.35 1417.23 604.95 1417.15 602.2C1417.07 599.64 1418.46 597.26 1420.15 595.36C1420.55 594.912 1420.98 594.488 1421.43 594.09C1419.66 594.933 1418.08 596.127 1416.79 597.6C1415.08 599.5 1413.69 601.88 1413.79 604.44C1413.88 607.19 1415.63 609.59 1417.35 611.74C1419.49 614.407 1421.83 616.904 1424.35 619.21C1427.16 621.82 1429.05 625.63 1430.99 628.9C1433.1 632.45 1435.16 636.44 1434.45 640.51C1434.02 642.98 1432.59 645.22 1432.31 647.71C1431.98 650.57 1433.19 653.36 1434.49 655.93C1438.06 663.01 1442.72 669.87 1449.49 674.01C1452.79 676.01 1456.79 677.63 1458.37 681.16C1459.6 683.88 1459.01 687.05 1459.57 689.98C1460.47 694.7 1464.26 698.37 1468.36 700.87C1475.06 704.984 1482.97 706.658 1490.76 705.61C1493.88 705.16 1497.08 704.12 1499.3 701.94C1497.64 702.652 1495.9 703.134 1494.11 703.37V703.37Z" fill="black"/>
</g>
<defs>
<filter id="filter0_d" x="1404.01" y="659.85" width="36.5251" height="57.08" filterUnits="userSpaceOnUse" color-interpolation-filters="sRGB">
<feFlood flood-opacity="0" result="BackgroundImageFix"/>
<feColorMatrix in="SourceAlpha" type="matrix" values="0 0 0 0 0 0 0 0 0 0 0 0 0 0 0 0 0 0 127 0"/>
<feOffset dy="4"/>
<feGaussianBlur stdDeviation="2"/>
<feColorMatrix type="matrix" values="0 0 0 0 0 0 0 0 0 0 0 0 0 0 0 0 0 0 0.25 0"/>
<feBlend mode="normal" in2="BackgroundImageFix" result="effect1_dropShadow"/>
<feBlend mode="normal" in="SourceGraphic" in2="effect1_dropShadow" result="shape"/>
</filter>
<linearGradient id="paint0_linear" x1="1409.07" y1="1075.2" x2="1409.07" y2="582.68" gradientUnits="userSpaceOnUse">
<stop stop-color="#808080" stop-opacity="0.25"/>
<stop offset="0.54" stop-color="#808080" stop-opacity="0.12"/>
<stop offset="1" stop-color="#808080" stop-opacity="0.1"/>
</linearGradient>
</defs>
</svg>
