<svg width="1787" height="869" viewBox="0 0 1787 869" fill="none" xmlns="http://www.w3.org/2000/svg">
<path d="M1574.25 172.386C1906.53 -26.0493 1733.75 -42.6135 2081.75 68.8864C2151.91 199.386 2109.85 312.422 2114.25 342.822C2119.75 380.822 2108.75 807.322 2003.75 988.322C1898.75 1169.32 1841.75 1009.82 1574.25 969.322C1306.75 928.822 790.747 985.822 523.247 1026.32C255.747 1066.82 -102.377 1024.56 27.5 989.5C466.5 871 127.526 828.5 642.026 439.886C907.093 239.675 1379.89 288.459 1574.25 172.386Z" fill="#C8FFE4"/>
<path d="M906.748 396.822C1343.75 293.322 1361.03 155.886 1835.03 85.3864C2151.53 38.312 2109.75 679.822 1950.25 843.322C1790.75 1006.82 1684.75 1090.82 1076.25 980.322C926.382 953.107 634.248 1061.32 458.748 909.822C324.533 793.962 469.748 500.322 906.748 396.822Z" fill="#1C9ECA"/>
<g clip-path="url(#clip0)">
<path d="M1139.23 745.802C1139.23 745.802 1144.23 724.802 1179.23 731.802C1214.23 738.802 1219.23 745.802 1219.23 745.802H1139.23Z" fill="#3F3D56"/>
<path d="M966.731 718.302C966.731 718.302 971.731 697.302 1006.73 704.302C1041.73 711.302 1046.73 718.302 1046.73 718.302H966.731Z" fill="#3F3D56"/>
<path d="M1259.23 745.802C1259.23 745.802 1231.23 728.802 1219.23 745.802H1259.23Z" fill="#3F3D56"/>
<path d="M1128.73 697.802C1128.73 697.802 1100.73 680.802 1088.73 697.802H1128.73Z" fill="#3F3D56"/>
<path d="M971.656 682.182C979.992 697.642 997.685 704.279 997.685 704.279C997.685 704.279 1001.86 685.85 993.525 670.39C985.189 654.93 967.497 648.294 967.497 648.294C967.497 648.294 963.32 666.723 971.656 682.182Z" fill="#3F3D56"/>
<path d="M977.386 677.096C992.436 686.151 998.232 704.136 998.232 704.136C998.232 704.136 979.628 707.44 964.577 698.386C949.527 689.331 943.731 671.346 943.731 671.346C943.731 671.346 962.336 668.041 977.386 677.096Z" fill="#A4FFFF"/>
<path d="M1723.73 745.802C1699.41 741.995 1676.03 738.757 1653.59 736.087L1662.23 718.802C1659.23 717.802 1646.23 727.802 1646.23 727.802L1657.23 677.802C1642.23 679.802 1635.23 730.802 1635.23 730.802L1618.23 713.802L1626.6 733.049C1557.92 725.832 1498.65 723.58 1448.83 724.096L1456.23 709.302C1453.23 708.302 1440.23 718.302 1440.23 718.302L1451.23 668.302C1436.23 670.302 1429.23 721.302 1429.23 721.302L1412.23 704.302L1421.09 724.687C1386.97 725.679 1352.92 728.421 1319.07 732.903C1326.45 709.908 1352.23 687.802 1352.23 687.802C1332.41 693.968 1322.1 704.014 1316.76 713.326C1315.68 666.082 1322.95 619.019 1338.23 574.302C1338.23 574.302 1298.23 664.302 1304.23 724.302L1304.99 734.96C1270.19 740.388 1252.73 745.802 1252.73 745.802H1723.73Z" fill="#3F3D56"/>
<path d="M1462.73 791.302C1462.73 791.302 1646.73 764.302 1760.73 791.302H1462.73Z" fill="#3F3D56"/>
<path d="M1191.73 828.302C1191.73 828.302 1375.73 801.302 1489.73 828.302H1191.73Z" fill="#3F3D56"/>
<path d="M1532.73 838.229C1532.73 838.229 1641.71 810.59 1709.23 838.229H1532.73Z" fill="#3F3D56"/>
<path d="M1767.96 564.12L1766.5 565.483L1833.5 637.483L1834.96 636.12L1767.96 564.12Z" fill="#3F3D56"/>
<path d="M1751.23 561.802C1756.75 561.802 1761.23 557.324 1761.23 551.802C1761.23 546.279 1756.75 541.802 1751.23 541.802C1745.71 541.802 1741.23 546.279 1741.23 551.802C1741.23 557.324 1745.71 561.802 1751.23 561.802Z" fill="#3F3D56"/>
<path d="M1795.23 571.801C1800.75 571.801 1805.23 567.324 1805.23 561.802C1805.23 556.279 1800.75 551.802 1795.23 551.802C1789.71 551.802 1785.23 556.279 1785.23 561.802C1785.23 567.324 1789.71 571.801 1795.23 571.801Z" fill="#3F3D56"/>
<path d="M1775.23 610.801C1780.75 610.801 1785.23 606.324 1785.23 600.801C1785.23 595.279 1780.75 590.801 1775.23 590.801C1769.71 590.801 1765.23 595.279 1765.23 600.801C1765.23 606.324 1769.71 610.801 1775.23 610.801Z" fill="#A4FFFF"/>
<path d="M1785.23 496.802C1790.75 496.802 1795.23 492.324 1795.23 486.802C1795.23 481.279 1790.75 476.802 1785.23 476.802C1779.71 476.802 1775.23 481.279 1775.23 486.802C1775.23 492.324 1779.71 496.802 1785.23 496.802Z" fill="#3F3D56"/>
<path d="M1200.01 433.794C1200.01 557.404 1126.53 600.564 1035.88 600.564C945.232 600.564 871.747 557.404 871.747 433.794C871.747 310.184 1035.88 152.933 1035.88 152.933C1035.88 152.933 1200.01 310.184 1200.01 433.794Z" fill="#8CFFC8"/>
<path d="M1029.9 581.656L1031.58 478.206L1101.54 350.223L1031.84 461.977L1032.6 415.462L1080.81 322.867L1032.8 403.152L1034.16 319.492L1085.79 245.775L1034.37 306.337L1035.22 152.933L1029.89 356.011L1030.32 347.634L977.832 267.287L1029.48 363.716L1024.59 457.15L1024.45 454.67L963.932 370.117L1024.26 463.431L1023.65 475.116L1023.54 475.292L1023.59 476.251L1011.18 713.301H1027.76L1029.75 590.86L1089.93 497.775L1029.9 581.656Z" fill="#3F3D56"/>
<path d="M1741.39 396.944C1741.39 547.956 1651.62 600.683 1540.88 600.683C1430.14 600.683 1340.36 547.956 1340.36 396.944C1340.36 245.933 1540.88 53.8225 1540.88 53.8225C1540.88 53.8225 1741.39 245.933 1741.39 396.944Z" fill="#8CFFC8"/>
<path d="M1533.57 577.584L1535.63 451.201L1621.09 294.847L1535.95 431.375L1536.87 374.548L1595.78 261.428L1537.12 359.51L1538.78 257.304L1601.85 167.246L1539.04 241.232L1540.08 53.8225L1533.56 301.919L1534.09 291.684L1469.97 193.527L1533.06 311.331L1527.09 425.477L1526.91 422.448L1452.98 319.152L1526.69 433.151L1525.94 447.426L1525.81 447.641L1525.87 448.813L1510.71 738.412H1530.96L1533.39 588.828L1606.91 475.108L1533.57 577.584Z" fill="#3F3D56"/>
<path d="M1538.16 547.869C1538.16 547.869 1579.93 562.227 1584.28 565.273C1588.63 568.319 1608.21 582.677 1598.64 590.074C1589.07 597.471 1581.24 602.257 1562.53 596.6C1543.82 590.944 1522.93 573.54 1522.93 573.54L1538.16 547.869Z" fill="#FFC4C4"/>
<path d="M1420.25 516.107C1420.25 516.107 1420.68 533.076 1418.94 534.816C1417.2 536.556 1439.83 587.898 1464.63 565.273C1489.43 542.648 1470.29 533.511 1470.29 533.511C1470.29 533.511 1461.15 516.542 1461.58 514.801C1462.02 513.061 1421.12 514.801 1421.12 514.801L1420.25 516.107Z" fill="#FFC4C4"/>
<path d="M1378.91 614.439L1388.05 642.721C1388.05 642.721 1379.78 669.262 1383.7 698.849C1387.62 728.436 1385.44 729.306 1385.44 729.306C1385.44 729.306 1346.32 727.054 1350.23 738.802C1354.15 750.549 1392.4 743.665 1392.4 743.665C1392.4 743.665 1399.75 741.686 1403.23 720.802C1406.71 699.917 1415.46 659.69 1415.46 659.69L1407.23 621.715L1378.91 614.439Z" fill="#FFC4C4"/>
<path d="M1381.96 556.571C1381.96 556.571 1365.43 562.662 1365.43 579.196C1365.43 595.73 1371.52 618.355 1375.43 619.661C1379.35 620.966 1405.46 638.805 1410.24 626.187C1415.03 613.569 1381.96 556.571 1381.96 556.571Z" fill="#A4FFFF"/>
<path d="M1520.32 752.367L1555.13 751.062L1581.67 747.146L1573.84 773.252L1509.45 774.992L1520.32 752.367Z" fill="#FFC4C4"/>
<path d="M1570.36 755.847C1570.36 755.847 1569.92 746.275 1566.01 746.71C1562.09 747.145 1564.7 743.23 1568.18 742.359C1571.66 741.489 1581.67 737.138 1581.67 737.138L1621.27 739.749C1621.27 739.749 1646.94 762.374 1636.49 774.557C1626.05 786.74 1599.08 775.862 1599.08 775.862L1569.92 776.297C1569.92 776.297 1560.35 760.634 1570.36 755.847Z" fill="#2F2E41"/>
<path d="M1586.02 722.345L1598.64 781.519L1624.75 776.298L1609.95 702.33L1594.29 694.063L1586.02 722.345Z" fill="#FFC4C4"/>
<path d="M1435.91 714.948C1435.91 714.948 1362.82 748.016 1393.71 781.518C1393.71 781.518 1393.71 797.182 1426.34 794.136C1458.97 791.091 1522.06 785.434 1525.11 787.175C1528.15 788.915 1537.73 752.802 1529.46 751.061C1521.19 749.321 1511.19 747.145 1511.19 747.145C1511.19 747.145 1519.89 745.84 1519.89 738.443C1519.89 738.443 1544.69 736.703 1552.09 721.039C1559.48 705.376 1566.44 693.628 1566.44 693.628L1583.41 737.138C1583.41 737.138 1602.99 701.025 1617.79 717.123C1617.79 717.123 1601.25 613.134 1588.63 603.562C1576.02 593.99 1567.31 590.944 1555.57 599.646C1543.82 608.348 1532.94 630.538 1532.94 630.538L1435.91 714.948Z" fill="#2F2E41"/>
<path d="M1610.39 763.679C1607.35 765.974 1604.44 768.443 1601.69 771.076C1598.21 774.557 1593.42 772.816 1592.98 771.076C1592.55 769.336 1584.72 772.381 1583.85 784.999C1582.98 797.617 1577.76 808.93 1591.68 812.846C1605.6 816.762 1605.17 828.074 1605.17 828.074C1616.18 833.359 1628.83 834.14 1640.41 830.25C1659.99 823.723 1653.03 816.762 1653.03 816.762L1626.92 773.687C1626.92 773.687 1619.96 760.634 1610.39 763.679Z" fill="#2F2E41"/>
<path d="M1496.39 528.724C1496.39 528.724 1512.93 525.679 1524.67 532.205C1536.42 538.732 1546.43 551.785 1546.43 551.785C1546.43 551.785 1535.55 574.845 1527.72 578.326C1519.89 581.807 1505.53 564.403 1505.53 564.403L1496.39 528.724Z" fill="#A4FFFF"/>
<path opacity="0.1" d="M1420.25 516.107C1420.25 516.107 1420.68 533.076 1418.94 534.816C1417.2 536.556 1439.83 587.898 1464.63 565.273C1489.43 542.648 1470.29 533.511 1470.29 533.511C1470.29 533.511 1461.15 516.542 1461.58 514.801C1462.02 513.061 1421.12 514.801 1421.12 514.801L1420.25 516.107Z" fill="black"/>
<path d="M1427.21 548.739C1427.21 548.739 1443.74 560.052 1450.71 557.441C1457.67 554.83 1466.37 543.518 1467.24 542.648C1468.11 541.777 1512.49 630.973 1512.49 630.973C1512.49 630.973 1505.96 663.606 1488.56 673.178C1471.16 682.75 1471.37 690.365 1469.2 696.891C1467.02 703.418 1438.96 676.224 1438.96 676.224L1421.12 600.516V554.395L1427.21 548.739Z" fill="#A4FFFF"/>
<path d="M1420.03 528.507C1420.03 528.507 1414.59 527.419 1408.94 532.205C1403.28 536.991 1376.74 554.831 1378.04 556.571C1379.35 558.311 1391.1 583.112 1393.71 593.12C1396.32 603.127 1400.23 604.432 1400.23 604.432C1400.23 604.432 1409.37 610.959 1408.07 615.745C1406.76 620.531 1401.1 685.796 1408.94 700.154C1416.77 714.513 1415.46 727.131 1413.29 730.612C1411.11 734.092 1434.17 720.604 1434.17 720.604C1434.17 720.604 1468.55 692.758 1471.16 684.491C1472.84 678.808 1474.01 672.982 1474.64 667.087C1474.64 667.087 1452.45 579.196 1445.49 574.41C1438.52 569.624 1420.03 528.507 1420.03 528.507Z" fill="#575A89"/>
<path d="M1467.83 528.851C1467.83 528.851 1478.55 522.198 1480.73 523.938C1482.9 525.679 1503.35 525.679 1503.79 527.419C1504.22 529.16 1505.09 570.929 1519.89 581.807C1534.68 592.684 1525.11 614.439 1525.11 614.439L1535.99 631.843C1535.99 631.843 1476.81 688.837 1480.73 669.262C1480.95 668.174 1480.73 667.957 1480.73 667.957C1480.73 667.957 1457.67 569.189 1460.71 563.968C1463.76 558.746 1469.29 535.069 1467.83 528.851Z" fill="#575A89"/>
<path d="M1559.05 568.754L1499.87 589.204C1499.87 589.204 1441.13 603.127 1450.27 619.226C1459.41 635.324 1498.13 607.913 1498.13 607.913L1576.93 599.084C1576.93 599.084 1608.21 572.67 1559.05 568.754Z" fill="#FFC4C4"/>
<path d="M1443.74 532.205C1461.53 532.205 1475.94 517.79 1475.94 500.008C1475.94 482.226 1461.53 467.81 1443.74 467.81C1425.96 467.81 1411.55 482.226 1411.55 500.008C1411.55 517.79 1425.96 532.205 1443.74 532.205Z" fill="#FFC4C4"/>
<path d="M1418.1 468.009L1412.15 465.843C1412.15 465.843 1424.6 453.39 1441.93 454.473L1437.05 449.6C1437.05 449.6 1448.97 445.269 1459.79 456.639C1465.49 462.616 1472.07 469.642 1476.18 477.556H1482.56L1479.9 482.88L1489.21 488.204L1479.65 487.248C1480.56 491.845 1480.24 496.598 1478.75 501.037L1476.58 506.993C1476.58 506.993 1467.92 489.667 1467.92 487.501V492.915C1467.92 492.915 1461.96 488.042 1461.96 484.794L1458.71 488.584L1457.09 482.628L1437.05 488.584L1440.3 483.711L1427.85 485.335L1432.72 479.379C1432.72 479.379 1418.65 486.418 1418.1 492.374C1417.56 498.33 1410.52 505.91 1410.52 505.91L1407.28 500.496C1407.28 500.496 1402.4 476.131 1418.1 468.009Z" fill="#2F2E41"/>
</g>
<defs>
<clipPath id="clip0">
<rect width="1038.48" height="784.406" fill="white" transform="translate(871.747 53.8225)"/>
</clipPath>
</defs>
</svg>
