<svg width="929" height="798" viewBox="0 0 929 798" fill="none" xmlns="http://www.w3.org/2000/svg">
<g clip-path="url(#clip0)">
<path d="M928.411 9.17V264.71C918.701 266.8 908.651 269.86 901.911 277.14C892.791 286.97 892.101 301.71 891.911 315.14L889.751 470.58C889.581 482.47 889.311 494.82 884.011 505.47C876.121 521.33 858.851 530.12 847.771 543.94C828.891 567.48 830.841 601.34 837.611 630.75C844.381 660.16 855.071 689.9 850.441 719.75C846.571 744.69 832.621 765.75 814.021 783.05H54.8406C40.0806 767.11 28.9106 748.71 31.3306 727.86C34.0906 704.05 54.2706 685.47 59.0906 661.99C64.7106 634.64 48.6206 608.05 43.0906 580.7C35.6506 544.17 47.1806 506.7 58.5806 471.25C62.9606 457.6 67.5806 443.56 76.8506 432.63C88.1506 419.35 105.761 411.46 113.631 395.9C124.521 374.36 112.351 347.35 120.201 324.52C128.761 299.62 157.201 288.52 182.641 281.66C226.695 269.767 271.602 261.292 316.961 256.31C330.511 254.82 344.731 253.43 356.091 245.88C365.211 239.81 371.491 230.39 377.091 220.95C402.781 176.97 424.411 121.34 473.641 108.5C507.051 99.78 542.541 114.84 576.701 109.78C639.151 100.5 673.051 30.98 727.761 0H893.641C905.261 2.92 916.851 5.97666 928.411 9.17Z" fill="#004760"/>
<path opacity="0.7" d="M928.411 9.17V264.71C918.701 266.8 908.651 269.86 901.911 277.14C892.791 286.97 892.101 301.71 891.911 315.14L889.751 470.58C889.581 482.47 889.311 494.82 884.011 505.47C876.121 521.33 858.851 530.12 847.771 543.94C828.891 567.48 830.841 601.34 837.611 630.75C844.381 660.16 855.071 689.9 850.441 719.75C846.571 744.69 832.621 765.75 814.021 783.05H54.8406C40.0806 767.11 28.9106 748.71 31.3306 727.86C34.0906 704.05 54.2706 685.47 59.0906 661.99C64.7106 634.64 48.6206 608.05 43.0906 580.7C35.6506 544.17 47.1806 506.7 58.5806 471.25C62.9606 457.6 67.5806 443.56 76.8506 432.63C88.1506 419.35 105.761 411.46 113.631 395.9C124.521 374.36 112.351 347.35 120.201 324.52C128.761 299.62 157.201 288.52 182.641 281.66C226.695 269.767 271.602 261.292 316.961 256.31C330.511 254.82 344.731 253.43 356.091 245.88C365.211 239.81 371.491 230.39 377.091 220.95C402.781 176.97 424.411 121.34 473.641 108.5C507.051 99.78 542.541 114.84 576.701 109.78C639.151 100.5 673.051 30.98 727.761 0H893.641C905.261 2.92 916.851 5.97666 928.411 9.17Z" fill="#004760"/>
<path d="M157.41 527.86C156.971 530.108 156.995 532.422 157.48 534.66C159.18 540.79 166.34 543.4 172.61 544.45C181.46 545.93 190.93 546.06 198.97 542.07C202.101 540.39 205.065 538.414 207.82 536.17L219.12 527.55C221.007 526.314 222.606 524.687 223.81 522.78C224.588 521.144 225.011 519.361 225.05 517.55C225.351 512.923 224.713 508.283 223.174 503.909C221.635 499.535 219.228 495.517 216.097 492.097C212.966 488.678 209.175 485.926 204.953 484.009C200.732 482.091 196.166 481.048 191.53 480.94C190.289 480.847 189.043 481.013 187.87 481.43C186.561 482.11 185.391 483.029 184.42 484.14C178.3 490.08 170.35 491.14 166.42 498.97C161.848 508.039 158.803 517.8 157.41 527.86Z" fill="#FFC095"/>
<path d="M201.84 304.65C194.68 308.79 188.9 314.96 183.84 321.5C180 326.5 176.42 331.87 175.32 338.04C173.72 347.04 177.21 357.71 171.13 364.52C168.39 367.58 164.19 369.09 161.62 372.31C159.78 374.61 158.98 377.55 158.23 380.4C156.8 385.8 155.35 391.32 155.73 396.89C156.25 404.53 160.16 411.6 160.95 419.22C161.89 428.22 158.4 437.12 154.95 445.54L148.18 462.2C154.37 460.02 161.18 460.95 167.69 461.34C190.78 462.72 214.46 457.08 236.83 462.99C239.51 463.7 242.15 464.57 244.83 465.17C259.09 468.34 273.83 463.89 287.73 459.48C289.73 458.86 292.1 457.61 291.84 455.56C291.663 454.763 291.277 454.027 290.72 453.43C280.23 439.95 271.67 423.43 273.92 406.43C275.92 391.65 285.92 377.8 283.29 363.13C281.77 354.68 276.29 347.61 272.12 340.08C269.57 335.42 267.51 330.48 264.55 326.08C261.59 321.68 257.68 317.75 253.85 313.94C250.02 310.13 245.99 306.14 241.29 303.28C230.71 296.83 212.41 298.56 201.84 304.65Z" fill="#D67820"/>
<path d="M209.669 426.38C209.719 428.658 209.265 430.918 208.339 433C207.059 435.38 204.639 436.9 202.339 438.3C191.306 445 180.206 451.593 169.039 458.08C175.589 474.95 182.329 492.15 193.919 506.08C215.919 532.45 253.259 542.89 287.259 538C292.369 537.26 297.739 536.06 301.409 532.44C304.409 529.52 305.799 525.44 306.859 521.44C310.371 508.058 310.768 494.049 308.019 480.49C306.019 470.91 302.019 460.99 293.709 455.83C290.555 454.046 287.197 452.65 283.709 451.67L255.449 442.49C254.059 442.04 252.539 441.49 251.859 440.18C251.459 439.174 251.355 438.074 251.559 437.01L253.739 414.21C254.199 409.43 254.529 404.15 251.679 400.29C249.309 397.07 245.259 395.61 241.409 394.56C235.539 392.96 216.239 387.11 211.719 392.63C209.389 395.49 210.719 405.97 210.529 409.63L209.669 426.38Z" fill="#FFC095"/>
<path d="M289.41 451.5C300.31 454.13 312.2 458.35 317.26 468.36C320.26 474.36 320.26 481.28 320.2 487.95L319.2 590.2L291.58 591.33C294.835 573.361 296.84 555.187 297.58 536.94C298.034 529.307 297.83 521.648 296.97 514.05C294.78 497.52 287.47 482.27 278.8 468.21C276.8 465 266.14 453.21 267.8 449.41C269.82 444.94 285.25 450.5 289.41 451.5Z" fill="#FFC095"/>
<path opacity="0.05" d="M310.859 503.89C312.739 507.67 313.599 511.89 314.449 515.99C315.359 520.41 316.269 524.89 316.039 529.4C315.791 532.503 315.272 535.578 314.489 538.59L311.489 551.9C310.269 557.22 308.969 562.72 305.649 567.04C305.343 567.524 304.892 567.899 304.359 568.11C303.878 568.213 303.377 568.171 302.919 567.99C299.619 566.92 297.249 563.88 296.119 560.6C294.989 557.32 294.939 553.78 294.959 550.3C295.029 535.59 296.229 520.84 294.879 506.16C294.499 502.02 291.019 491.63 297.999 492.09C303.089 492.41 308.829 499.79 310.859 503.89Z" fill="#004760"/>
<path d="M312.84 687.05C312.84 687.53 312.84 688.05 312.77 688.5C312.77 689.73 312.67 690.96 312.62 692.22C311.54 720.32 311.75 755.7 303.01 782.94H169.84C169.41 781.6 169.05 780.23 168.69 778.88C163.1 757.76 157.47 736.12 159.29 714.35C159.478 711.471 159.899 708.611 160.55 705.8C160.55 705.64 160.63 705.48 160.68 705.32C161.053 703.833 161.625 702.404 162.38 701.07C162.607 700.665 162.865 700.277 163.15 699.91C163.31 699.71 163.48 699.51 163.65 699.33C164.18 698.755 164.81 698.28 165.51 697.93C168.99 696.23 178.23 698.49 183.42 699.33C184.11 699.44 184.73 699.52 185.26 699.57L199.73 700.86L203.46 701.19L231.84 703.72L235.65 704.06C244.56 704.83 253.5 705.46 262.43 704.87C280.34 703.68 294.8 686.67 312.73 687L312.84 687.05Z" fill="#0E0D15"/>
<path opacity="0.05" d="M169.279 570.31C170.139 573.03 170.049 575.95 170.279 578.79C171.069 587.95 175.349 596.46 176.799 605.54C179.079 619.82 174.239 634.16 169.799 647.93C165.359 661.7 161.339 675.72 161.799 690.09C162.119 699.09 164.479 708.4 170.699 714.87C179.449 723.98 193.329 725.29 205.949 726.04L251.469 728.75C260.379 729.28 269.369 729.81 278.179 728.4C286.989 726.99 295.729 723.46 301.859 716.98C305.446 713.033 308.195 708.4 309.939 703.36C311.672 698.815 312.606 694.004 312.699 689.14C312.699 683.38 311.319 677.73 310.159 672.09C305.159 647.61 304.889 622.43 304.659 597.44C304.559 585.94 304.459 574.33 306.969 563.11C308.269 557.3 310.249 551.65 311.599 545.85C316.069 526.62 312.359 504.16 297.289 491.4C295.989 490.3 294.289 489.22 292.689 489.86C291.509 490.33 290.879 491.58 290.289 492.71C287.468 498.055 283.523 502.725 278.723 506.399C273.924 510.073 268.386 512.662 262.489 513.99C256.179 515.37 249.629 515.24 243.189 514.76C234.769 514.14 226.269 512.89 218.539 509.51C210.809 506.13 203.829 500.39 200.369 492.69C191.719 499.03 192.809 512.19 187.939 521.74C184.799 527.89 179.249 532.29 173.429 535.74C168.909 538.43 159.499 540.08 156.429 544.44C150.089 553.59 166.839 562.57 169.279 570.31Z" fill="#004760"/>
<path d="M169.28 567.81C170.14 570.53 170.05 573.45 170.28 576.29C171.07 585.45 175.35 593.96 176.8 603.04C179.08 617.32 174.24 631.66 169.8 645.43C165.36 659.2 161.34 673.22 161.8 687.59C162.12 696.59 164.48 705.9 170.7 712.37C179.54 721.5 193.41 722.8 206.03 723.5L251.55 726.21C260.46 726.74 269.45 727.27 278.26 725.86C287.07 724.45 295.81 720.92 301.94 714.44C305.527 710.493 308.276 705.86 310.02 700.82C311.753 696.275 312.687 691.464 312.78 686.6C312.78 680.84 311.4 675.19 310.24 669.55C305.24 645.07 304.97 619.89 304.74 594.9C304.64 583.4 304.54 571.79 307.05 560.57C308.35 554.76 310.33 549.11 311.68 543.31C316.15 524.08 312.44 501.62 297.37 488.86C296.07 487.76 294.37 486.68 292.77 487.32C291.59 487.79 290.96 489.04 290.37 490.17C287.555 495.525 283.612 500.205 278.812 503.887C274.013 507.57 268.471 510.167 262.57 511.5C256.26 512.88 249.71 512.75 243.27 512.27C234.85 511.65 226.35 510.4 218.62 507.02C210.89 503.64 203.91 497.9 200.45 490.2C191.8 496.54 192.89 509.7 188.02 519.25C184.88 525.4 179.33 529.8 173.51 533.25C168.99 535.94 159.58 537.59 156.51 541.95C150.09 551.09 166.84 560.07 169.28 567.81Z" fill="#252036"/>
<path opacity="0.05" d="M281.57 592.79C281.57 590.12 282.85 587.63 284.17 585.31C285.99 582.13 287.944 579.03 290.03 576.01C291.528 573.558 293.508 571.435 295.85 569.77C298.28 568.25 301.53 567.77 304.01 569.17C304.553 569.602 305.203 569.878 305.89 569.97C306.89 569.97 307.55 568.97 308.44 568.59C310.04 567.85 311.88 569.03 313 570.4C314.12 571.77 315 573.4 316.61 574.19C317.19 574.47 317.84 574.6 318.43 574.86C320.48 575.76 321.57 577.97 322.49 580.02C323.22 581.376 323.646 582.873 323.74 584.41C323.74 587.09 321.74 589.28 319.85 591.2L315.01 596.2C313.782 597.598 312.349 598.802 310.76 599.77C309.961 600.248 309.064 600.54 308.136 600.625C307.208 600.71 306.273 600.585 305.4 600.26C304.976 599.987 304.474 599.857 303.97 599.89C303.594 600.024 303.271 600.276 303.05 600.61C301.979 601.923 300.978 603.292 300.05 604.71C299.266 606.209 298.13 607.496 296.74 608.46C295.26 609.28 293.03 609.01 292.36 607.46C292.28 607.154 292.125 606.872 291.91 606.64C291.3 606.16 290.52 606.94 289.81 607.24C288.62 607.75 287.22 606.75 286.81 605.52C286.527 604.251 286.604 602.928 287.03 601.7C286.14 600.98 284.84 601.41 283.69 601.47C281.32 601.6 281.8 600.08 281.86 598.7C282.01 596.67 281.59 594.79 281.57 592.79Z" fill="#004760"/>
<path opacity="0.05" d="M211.73 393.8C210.04 395.86 210.27 401.91 210.45 406.51C211 407.02 211.55 407.51 212.12 408C220.846 415.269 231.767 419.384 243.12 419.68C245.387 419.86 247.665 419.518 249.78 418.68C251.324 417.916 252.687 416.832 253.78 415.5V415.38C254.24 410.6 254.57 405.32 251.72 401.46C249.35 398.24 245.3 396.78 241.45 395.73C235.56 394.13 216.25 388.28 211.73 393.8Z" fill="#004760"/>
<path opacity="0.03" d="M177.64 519.65C177.1 524.37 175.03 528.75 172.99 533.04L161.17 557.88C159.29 554.67 157.34 551.15 157.78 547.46C158.097 545.652 158.701 543.907 159.57 542.29L169.9 520.37C170.68 518.72 173.33 509.48 175.11 509.37C177.77 509.26 177.83 518.02 177.64 519.65Z" fill="#004760"/>
<path opacity="0.05" d="M209.329 345.13C203.249 354.88 202.119 367.26 205.019 378.38C207.189 386.72 211.509 395.38 208.589 403.52C206.389 409.63 200.259 415.72 203.299 421.46C203.979 422.74 205.079 423.8 205.479 425.19C206.159 427.56 204.629 429.91 203.569 432.13C198.029 443.69 204.649 456.98 207.889 469.38C210.289 478.56 210.779 488.11 211.259 497.59L205.259 482.26C202.778 495.124 197.414 507.258 189.569 517.75C193.975 517.799 198.352 518.472 202.569 519.75C199.449 519.374 196.301 520.186 193.751 522.024C191.202 523.863 189.437 526.592 188.807 529.672C188.177 532.751 188.729 535.955 190.352 538.646C191.975 541.338 194.552 543.32 197.569 544.2C191.429 545.56 185.089 541.38 182.149 535.82C179.209 530.26 178.979 523.69 179.329 517.41L174.329 517.82C179.328 505.809 181.455 492.797 180.539 479.82C180.129 474.08 178.239 467.3 172.739 465.61L171.089 480.84L164.409 467.32C163.977 466.132 163.156 465.124 162.079 464.46C161.26 464.204 160.425 464.004 159.579 463.86C156.949 463.05 155.929 459.62 156.749 457C157.569 454.38 159.679 452.39 161.689 450.51C168.489 444.15 175.269 437.37 178.949 428.82C182.369 420.88 182.859 412.03 183.219 403.39C183.646 393.263 183.979 383.13 184.219 372.99C184.389 364.99 184.499 356.93 186.219 349.13C189.219 335.92 197.219 323.65 208.989 316.9C220.759 310.15 236.119 309.54 247.699 316.55C254.699 320.77 259.869 327.29 264.919 333.67L279.409 351.97C282.409 355.76 285.469 359.66 286.859 364.28C289.419 372.8 285.859 381.91 281.519 389.7C277.179 397.49 271.969 405.16 270.909 413.99C269.689 424.2 274.239 434.11 278.679 443.38C284.319 455.16 290.049 467.09 298.539 477.01C302.859 482.06 308.079 486.96 309.299 493.49C308.379 494.241 307.295 494.766 306.135 495.021C304.974 495.277 303.77 495.256 302.619 494.96C306.046 508.653 308.793 522.5 310.859 536.5C298.559 528.387 286.633 519.753 275.079 510.6C274.598 512.874 273.552 514.989 272.036 516.751C270.521 518.513 268.585 519.864 266.409 520.68C266.059 516.8 267.409 512.98 267.599 509.09C267.789 505.2 266.289 500.66 262.599 499.49C260.439 498.81 257.879 499.39 256.049 498.06C254.709 497.06 254.189 495.36 253.749 493.75L245.409 463.13C240.341 462.887 235.309 464.102 230.909 466.63C237.183 463.129 241.846 457.322 243.909 450.44L226.559 450.17C231.139 445.837 235.576 441.36 239.869 436.74C246.119 430.02 252.089 422.96 256.639 414.99C269.409 392.66 269.589 363.65 257.089 341.16C255.019 337.43 252.549 333.8 249.089 331.35C236.579 322.66 216.189 334.14 209.329 345.13Z" fill="#004760"/>
<path opacity="0.05" d="M177.15 668.91L187.97 683.5C192.33 689.38 196.72 695.32 202.22 700.15C213.77 710.32 229.22 714.89 241.59 724.15C249.3 729.918 255.598 737.362 260.01 745.92C262.17 750.12 263.46 756.13 259.62 758.92C256.21 761.36 251.52 759.2 247.94 757.03L228.56 745.32C222.92 741.91 217.18 738.42 212.86 733.44C209.48 729.54 207.11 724.88 204.29 720.55C199.972 713.92 194.593 708.045 188.37 703.16C184.56 700.16 180.37 697.53 177.2 693.88C172.07 688.04 169.9 680.21 168.36 672.58C167.85 670.04 164 654 166.97 653.8C168.66 653.63 175.64 666.87 177.15 668.91Z" fill="#004760"/>
<path opacity="0.1" d="M168.77 567.98C168.77 567.98 211.9 588.61 260.65 570.48H267.53C267.53 570.48 288.16 581.73 303.78 568.6L304.87 607L176.87 603L168.77 567.98Z" fill="#004760"/>
<path d="M408.5 292.09C407.19 291.38 405.73 290.65 404.27 290.95C400.83 291.66 399.85 297.45 396.33 297.29C394.64 297.21 393.43 295.69 391.91 294.93C390.39 294.17 387.82 295.14 388.42 296.72C385.56 299.42 381.22 291.97 377.9 294.07C377.16 294.54 376.75 295.4 376.03 295.89C374.81 296.73 373.15 296.31 371.79 295.73C370.43 295.15 368.98 294.43 367.54 294.73C366.1 295.03 365.15 297.19 366.35 298.06L355.19 298C354.905 298.779 354.785 299.609 354.836 300.436C354.888 301.264 355.111 302.073 355.49 302.81L347.35 303.12C347.318 304.585 347.721 306.026 348.51 307.26C346.283 306.933 344.012 307.064 341.837 307.645C339.661 308.226 337.628 309.245 335.86 310.64L339.31 313.3C335.825 313.483 332.401 314.289 329.2 315.68L330.98 318.68C329.009 318.681 327.107 319.403 325.633 320.712C324.159 322.02 323.215 323.823 322.98 325.78L326.14 326.97C324.276 327.496 322.542 328.407 321.05 329.643C319.559 330.88 318.343 332.415 317.48 334.15L319.91 335.23C318.108 339.286 314.829 342.504 310.74 344.23C312.587 344.723 314.223 345.803 315.401 347.307C316.579 348.812 317.235 350.659 317.27 352.57C314.61 350.93 310.91 353.25 310.1 356.26C309.29 359.27 310.49 362.45 311.92 365.26C312.913 363.238 313.136 360.925 312.55 358.75C313.332 359.168 314.01 359.755 314.538 360.467C315.066 361.178 315.429 361.998 315.602 362.868C315.775 363.737 315.754 364.633 315.539 365.493C315.324 366.353 314.922 367.154 314.36 367.84C313.591 368.45 312.917 369.171 312.36 369.98C311.36 371.98 313.09 374.14 314.67 375.68C312.16 376.89 309.43 378.33 308.46 380.94C307.73 382.94 308.16 385.07 308.58 387.12C309 389.17 309.37 391.37 308.58 393.28C307.79 395.19 305.18 396.47 303.49 395.28C303.347 396.239 303.521 397.219 303.987 398.07C304.453 398.92 305.184 399.595 306.07 399.991C306.955 400.387 307.946 400.481 308.891 400.261C309.835 400.041 310.682 399.517 311.3 398.77C312.35 397.49 314.02 395.43 315.02 396.77C310.96 399.83 311.1 406.96 315.29 409.85C313.95 409.1 312.29 410.37 311.6 411.72C310.37 413.99 310.25 417.03 311.92 419C313.59 420.97 317.22 421.08 318.55 418.86C317.15 421.73 321.22 424.56 324.35 423.94C327.48 423.32 330.03 420.94 333.12 420.15C336.21 419.36 340.51 421.45 339.71 424.54C338.463 423.954 337.086 423.696 335.71 423.79C335.029 423.859 334.398 424.177 333.937 424.682C333.475 425.188 333.217 425.846 333.21 426.53C335.48 428.47 338.03 430.53 341.02 430.48C344.01 430.43 346.89 426.95 345.2 424.48C346.07 422.95 348.61 424.15 349.14 425.83C349.67 427.51 349.26 429.42 349.98 431.03C350.301 431.611 350.755 432.106 351.307 432.475C351.858 432.844 352.49 433.076 353.149 433.15C353.808 433.224 354.475 433.14 355.095 432.903C355.715 432.667 356.269 432.285 356.71 431.79C357.49 432.7 358.95 432.4 360.09 432.02C366.9 429.75 374.64 426.53 376.58 419.62C377.18 417.46 377.17 415.04 378.58 413.26C379.628 412.049 381.025 411.193 382.58 410.81C389.45 408.72 396.85 411.05 403.39 414.01C409.93 416.97 416.39 420.65 423.5 421.41C428.16 421.91 433.06 421.16 437.4 422.92C438.478 423.501 439.655 423.878 440.87 424.03C442.09 424.03 443.45 423.11 443.31 421.9C443.22 421.14 442.61 420.56 442.25 419.9C442.056 419.494 441.945 419.053 441.924 418.604C441.903 418.154 441.974 417.705 442.13 417.283C442.287 416.861 442.527 416.475 442.837 416.148C443.146 415.821 443.518 415.56 443.93 415.38C443.805 416.368 443.94 417.372 444.32 418.292C444.701 419.213 445.314 420.018 446.1 420.63C446.911 421.208 447.904 421.473 448.895 421.375C449.886 421.278 450.808 420.825 451.49 420.1C452.75 418.56 452.15 415.81 450.27 415.18C452.056 414.169 453.373 412.495 453.934 410.52C454.495 408.546 454.257 406.43 453.27 404.63C458.08 401.83 459.2 394.31 455.4 390.24C457.56 389.156 459.292 387.377 460.319 385.19C461.345 383.003 461.607 380.534 461.06 378.18C463.06 377.4 465.06 376.53 466.41 374.86C467.76 373.19 467.94 370.47 466.32 369.1C468.347 363.782 469.486 358.167 469.69 352.48C469.75 350.84 469.16 348.63 467.53 348.72C468.91 346.39 470.28 343.39 468.77 341.14C468.18 340.27 467.23 339.67 466.77 338.74C465.59 336.52 467.57 333.74 466.86 331.34C466.22 329.15 463.73 328.2 461.78 327.01C458.89 325.26 456.78 322.51 454.06 320.49C451.34 318.47 447.54 317.23 444.66 318.98C444.302 316.176 443.322 313.488 441.793 311.111C440.263 308.734 438.223 306.729 435.82 305.24C430.82 302.24 429.08 297.81 422.31 296.97C420.12 296.7 417.44 297.52 415.37 296.82C412.92 295.9 410.8 293.33 408.5 292.09Z" fill="#8C5B79"/>
<path opacity="0.05" d="M398.319 357.92C396.169 360.06 397.929 364.23 395.879 366.46C394.879 367.55 393.169 367.89 392.379 369.15C391.379 370.78 392.379 373.01 391.739 374.82C390.909 377.02 387.909 377.67 386.859 379.82C385.559 382.44 387.589 386.55 385.069 388.04C384.129 388.6 382.769 388.53 382.179 389.45C381.589 390.37 382.179 391.57 382.179 392.66C382.179 394.66 380.069 395.9 378.689 397.37C377.309 398.84 377.139 402.01 379.149 402.16C378.107 403.851 376.551 405.165 374.709 405.91C376.589 407.02 376.149 409.91 374.799 411.67C373.449 413.43 371.409 414.5 370.499 416.5C370.019 417.5 369.849 418.62 369.389 419.63C367.809 423.11 362.969 424.18 359.509 422.56C356.049 420.94 353.889 417.34 352.829 413.67C350.489 405.58 352.549 396.77 350.569 388.59C349.429 383.85 346.949 379.33 347.139 374.46C347.299 370.58 349.139 367 351.039 363.61C355.747 355.171 360.942 347.014 366.599 339.18C372.019 331.67 378.599 323.99 387.649 322.07C392.999 320.94 398.559 321.99 403.849 323.38C419.339 327.46 434.319 334.71 445.459 346.22C448.904 349.577 451.627 353.603 453.459 358.05C455.149 362.54 455.389 367.73 453.329 372.05C452.149 374.53 450.189 377.05 450.969 379.73C451.321 380.54 451.632 381.368 451.899 382.21C452.629 386.21 445.899 388.21 445.899 392.21C445.899 393.31 446.439 394.37 446.299 395.46C446.009 397.68 443.299 398.6 442.029 400.46C440.239 403.17 441.809 407.53 439.269 409.55C438.049 410.55 436.039 410.74 435.579 412.24C435.279 413.24 435.849 414.24 435.799 415.24C435.709 417.04 433.799 418.13 432.799 419.58C431.799 421.03 432.559 424 434.219 423.3L429.609 426.55L430.829 429.07C429.829 431.18 426.599 431.37 424.949 429.75C423.299 428.13 423.109 425.45 423.859 423.26C424.753 421.122 425.997 419.149 427.539 417.42C430.423 413.73 433.071 409.862 435.469 405.84C437.469 402.51 439.329 398.77 438.809 394.93C438.389 391.82 436.439 388.72 437.469 385.75L440.799 384.55L435.169 377.93L437.979 377.26C437.051 376.461 436.36 375.424 435.979 374.26C435.817 373.679 435.889 373.058 436.178 372.53C436.468 372.001 436.953 371.606 437.529 371.43C439.199 366.5 429.529 362.43 432.099 357.83H429.559C429.522 355.325 428.51 352.932 426.739 351.16C424.756 349.288 422.164 348.195 419.439 348.08C416.169 347.89 407.439 348.4 404.709 350.55C403.089 351.82 403.859 353.36 402.779 354.74C401.619 356.44 399.679 356.56 398.319 357.92Z" fill="#004760"/>
<path d="M450.01 492.26C449.466 495.829 448.244 499.26 446.41 502.37C444.259 505.391 441.408 507.844 438.1 509.52C435.89 510.75 433.54 511.8 431.24 512.8L414.81 519.94C409.729 522.759 403.785 523.603 398.12 522.31L367.7 518.06C364.06 517.55 360.38 517.06 356.7 516.35C354.38 515.93 352.07 515.44 349.81 514.86C345.016 513.691 340.398 511.889 336.08 509.5C326.55 504.06 322.8 493.31 323.78 482.37C324.71 471.96 328.91 464.29 336.51 457.11L338.61 455.11L338.8 454.94L343.9 450.11L351.35 443.11C354.714 440.115 357.797 436.818 360.56 433.26C366.67 424.88 368.84 411.82 377.02 405.11C383.96 399.42 399.72 407.62 406.08 411.9C407.128 412.5 408.003 413.361 408.62 414.4C409.087 415.595 409.222 416.894 409.01 418.16C408.285 426.035 406.044 433.696 402.41 440.72C401.7 442.09 400.92 443.58 401.18 445.1C401.268 445.603 401.459 446.083 401.74 446.51C402.612 447.644 403.748 448.547 405.05 449.14C406.837 450.063 408.669 450.894 410.54 451.63C417.3 454.31 424.48 456.03 431.21 458.87C439.79 462.5 448.15 468.73 450.39 477.77C451.61 482.5 450.98 487.5 450.01 492.26Z" fill="#C6866B"/>
<path d="M410.579 451.62C411.879 456.24 418.309 478.42 422.219 479.53C423.689 479.95 430.129 492.72 438.059 509.53C453.789 542.86 475.339 592.05 475.339 592.05L383.849 589.87L344.079 588.87L349.819 514.82L350.959 500.12L361.289 496.53L365.339 495.12L364.709 471.99C364.709 471.99 355.819 449.41 338.779 454.88L343.879 450.05C352.269 449.96 361.509 455.4 370.329 471.99C370.329 471.99 421.579 540.74 416.579 476.99C416.579 476.99 407.829 449.49 399.079 445.11L401.759 446.45L410.579 451.62Z" fill="#252036"/>
<path opacity="0.05" d="M404.7 433.03C405.937 428.982 406.751 424.816 407.13 420.6C407.342 419.334 407.208 418.035 406.74 416.84C406.124 415.801 405.248 414.94 404.2 414.34C397.84 410.06 382.09 401.86 375.14 407.55C374.405 408.168 373.713 408.836 373.07 409.55C380.276 421.084 391.574 429.471 404.7 433.03Z" fill="#004760"/>
<path d="M369.189 392.91C373.489 412.27 390.679 427.64 410.189 431.36C414.499 432.19 419.739 432.16 422.359 428.63C424.049 426.35 424.109 423.25 425.359 420.63C426.429 418.37 428.359 416.63 430.009 414.8C432.262 412.234 434.239 409.438 435.909 406.46C441.609 396.61 445.249 385.26 444.269 373.92C443.68 368.87 442.64 363.884 441.159 359.02C439.569 353.17 437.669 346.87 432.759 343.32C421.989 335.53 404.209 338.11 393.009 343.24C381.319 348.6 373.009 359.65 369.809 371.94C367.937 378.781 367.725 385.97 369.189 392.91V392.91Z" fill="#C6866B"/>
<path d="M398.321 356.67C396.171 358.81 397.931 362.98 395.881 365.21C394.881 366.3 393.171 366.64 392.381 367.9C391.381 369.53 392.381 371.76 391.741 373.57C390.911 375.77 387.911 376.42 386.861 378.57C385.561 381.19 387.591 385.3 385.071 386.79C384.131 387.35 382.771 387.28 382.181 388.2C381.591 389.12 382.181 390.32 382.181 391.41C382.181 393.41 380.071 394.65 378.691 396.12C377.311 397.59 377.141 400.76 379.151 400.91C378.108 402.601 376.553 403.915 374.711 404.66C376.591 405.77 376.151 408.66 374.801 410.42C373.451 412.18 371.461 413.35 370.511 415.31C370.031 416.31 369.861 417.43 369.401 418.44C367.821 421.92 362.981 422.99 359.521 421.37C356.061 419.75 353.901 416.15 352.841 412.48C350.501 404.39 352.561 395.58 350.581 387.4C349.441 382.66 346.961 378.14 347.151 373.27C347.311 369.39 349.151 365.81 351.051 362.42C355.759 353.981 360.954 345.824 366.611 337.99C372.031 330.48 378.611 322.8 387.661 320.88C393.011 319.75 398.571 320.8 403.861 322.19C419.351 326.27 434.331 333.52 445.471 345.03C448.916 348.387 451.638 352.413 453.471 356.86C455.161 361.35 455.401 366.54 453.341 370.86C452.161 373.34 450.201 375.86 450.981 378.54C451.333 379.35 451.643 380.178 451.911 381.02C452.641 385.02 445.911 387.02 445.911 391.02C445.911 392.12 446.451 393.18 446.311 394.27C446.021 396.49 443.311 397.41 442.041 399.27C440.251 401.98 441.821 406.34 439.281 408.36C438.061 409.36 436.051 409.55 435.591 411.05C435.291 412.05 435.861 413.05 435.811 414.05C435.721 415.85 433.811 416.94 432.811 418.39C431.811 419.84 432.571 422.81 434.231 422.11L429.621 425.36L430.841 427.88C429.841 429.99 426.611 430.18 424.961 428.56C423.311 426.94 423.121 424.26 423.871 422.07C424.765 419.932 426.009 417.959 427.551 416.23C430.435 412.54 433.083 408.672 435.481 404.65C437.481 401.32 439.341 397.58 438.821 393.74C438.401 390.63 436.451 387.53 437.481 384.56L440.811 383.36L435.181 376.74L437.991 376.07C437.063 375.271 436.371 374.234 435.991 373.07C435.829 372.489 435.9 371.868 436.19 371.34C436.48 370.811 436.964 370.416 437.541 370.24C439.211 365.31 429.541 361.24 432.111 356.64H429.571C429.533 354.135 428.522 351.742 426.751 349.97C424.768 348.098 422.176 347.005 419.451 346.89C416.181 346.7 407.451 347.21 404.721 349.36C403.101 350.63 403.871 352.17 402.791 353.55C401.621 355.19 399.681 355.31 398.321 356.67Z" fill="#8C5B79"/>
<path d="M652.961 727.99C651.771 733.99 648.061 740.18 644.811 745.3C644.331 746.05 643.871 746.8 643.401 747.55L642.671 748.75C637.36 757.506 632.842 766.719 629.171 776.28C628.311 778.51 627.501 780.75 626.761 783H586.411C583.691 778.85 582.411 774.12 581.411 769.5C579.803 761.817 578.936 753.998 578.821 746.15C578.738 741.063 578.975 735.977 579.531 730.92C579.531 730.46 579.641 730 579.701 729.53C580.481 723.7 582.301 717.53 588.191 713.96C588.66 713.671 589.144 713.408 589.641 713.17C589.773 713.093 589.91 713.026 590.051 712.97C592.735 711.806 595.538 710.937 598.411 710.38C602.551 709.46 606.744 708.707 610.991 708.12L612.331 707.95C614.684 707.643 617.051 707.393 619.431 707.2C620.781 707.08 622.131 706.98 623.491 706.9C630.691 706.49 638.491 706.7 644.251 710.08C648.881 712.82 651.451 716.02 652.601 719.45C652.661 719.62 652.721 719.8 652.771 719.98C653.475 722.596 653.54 725.343 652.961 727.99V727.99Z" fill="#0E0D15"/>
<path d="M713.6 727.74C709.701 730.984 706.728 735.199 704.98 739.96C704.78 740.45 704.6 740.96 704.43 741.44C702.16 748.02 701.51 755.33 701.11 762.2C700.71 769.07 700.3 776.07 699.9 783H629.56C629.39 780.76 629.25 778.52 629.17 776.28C628.93 770.54 628.953 764.797 629.24 759.05C629.325 755.208 629.858 751.388 630.83 747.67C630.95 747.27 631.07 746.87 631.21 746.47C631.35 746.07 631.6 745.4 631.82 744.87C634.98 737.4 641.92 732.03 649.5 729.14C650.64 728.71 651.79 728.33 652.96 727.99C659.55 726.07 666.53 725.56 673.42 725.34C684.57 724.98 703.74 722.71 713.6 727.74Z" fill="#0E0D15"/>
<path d="M631.469 450.18C631.601 453.056 631.246 455.933 630.419 458.69C628.759 463.32 624.599 466.69 620.009 468.47C615.419 470.25 610.399 470.47 605.489 470.47C599.139 470.38 591.929 470.05 587.489 474.56C584.609 477.45 583.629 481.66 582.769 485.65C579.659 500.03 576.629 515.51 582.359 529.06C585.989 537.66 592.929 544.6 600.969 549.34C609.009 554.08 618.129 556.73 627.329 558.34C630.986 558.999 634.694 559.33 638.409 559.33C651.089 559.21 662.929 553.33 674.249 547.66C676.763 546.573 679.063 545.046 681.039 543.15C682.811 540.991 684.167 538.523 685.039 535.87C691.126 520.39 696.619 504.697 701.519 488.79C702.819 484.57 704.089 480.25 704.009 475.79C703.929 471.33 702.299 466.79 698.779 464.11C693.409 460.11 685.909 461.67 679.229 462.44C678.758 462.59 678.258 462.626 677.771 462.546C677.283 462.466 676.821 462.271 676.422 461.979C676.024 461.687 675.7 461.304 675.477 460.863C675.254 460.422 675.138 459.934 675.139 459.44C673.24 452.193 673.004 444.611 674.449 437.26C675.359 432.68 676.859 427.7 674.719 423.55C671.779 417.85 664.019 417.23 657.599 417.37L646.599 417.61C644.977 417.504 643.356 417.828 641.899 418.55C639.439 420.07 637.759 422.55 635.189 424.08C633.039 425.37 631.689 425.21 630.799 427.72C629.909 430.23 631.159 435.29 631.259 438.02C631.419 442.1 631.489 446.153 631.469 450.18Z" fill="#FDBE92"/>
<path opacity="0.05" d="M600.759 520.74C602.264 522.932 604.091 524.884 606.179 526.53C610.519 529.61 616.409 529.77 621.509 528.23C626.609 526.69 631.099 523.66 635.509 520.67L671.589 496.19C676.589 492.81 681.589 489.4 687.299 487.44C688.75 486.804 690.368 486.656 691.909 487.02C693.37 487.679 694.605 488.754 695.459 490.11C700.229 496.28 705.089 502.61 707.459 510.03C709.699 516.92 709.679 524.31 709.599 531.55C709.493 541.443 709.323 551.337 709.089 561.23C708.959 566.82 708.789 572.48 707.169 577.83C704.889 585.38 699.809 591.99 698.469 599.76C697.079 607.81 699.889 615.92 702.469 623.69C712.916 655.535 719.582 688.498 722.329 721.9C722.579 725 722.759 728.32 721.209 731.01C719.979 733.16 717.819 734.61 715.679 735.87C688.279 752.04 654.219 750.79 622.679 746.68C616.229 745.84 609.429 744.75 604.449 740.57C600.919 737.57 598.699 733.4 596.679 729.26C587.029 709.46 579.799 687.85 580.679 665.85C581.137 658.641 581.995 651.463 583.249 644.35C585.249 631.53 586.996 618.68 588.489 605.8C589.599 596.41 590.549 586.65 587.489 577.69C584.409 568.4 577.249 560.83 574.409 551.43C570.239 537.58 576.059 522.57 581.679 510C583.479 506 592.679 472 594.419 471.72C599.519 470.8 596.679 515.38 600.759 520.74Z" fill="#004760"/>
<path d="M600.76 519.5C602.265 521.692 604.092 523.644 606.18 525.29C610.52 528.37 616.41 528.53 621.51 526.99C626.61 525.45 631.1 522.42 635.51 519.43L671.59 494.95C676.59 491.57 681.59 488.16 687.3 486.2C688.75 485.564 690.368 485.416 691.91 485.78C693.371 486.439 694.606 487.514 695.46 488.87C700.23 495.04 705.09 501.37 707.46 508.79C709.7 515.68 709.68 523.07 709.6 530.31C709.493 540.203 709.323 550.097 709.09 559.99C708.96 565.58 708.79 571.24 707.17 576.59C704.89 584.14 699.81 590.75 698.47 598.52C697.08 606.57 699.89 614.68 702.47 622.45C712.917 654.295 719.583 687.258 722.33 720.66C722.58 723.76 722.76 727.08 721.21 729.77C719.98 731.92 717.82 733.37 715.68 734.63C688.28 750.8 654.22 749.55 622.68 745.44C616.24 744.6 609.41 743.5 604.41 739.32C600.88 736.32 598.66 732.15 596.64 728.01C586.99 708.21 579.76 686.6 580.64 664.6C581.097 657.391 581.955 650.213 583.21 643.1C585.21 630.28 586.957 617.43 588.45 604.55C589.56 595.16 590.51 585.4 587.45 576.44C584.3 567.15 577.13 559.58 574.3 550.19C570.13 536.34 575.95 521.33 581.57 508.76C583.37 504.76 592.57 470.76 594.31 470.48C599.52 469.55 596.68 514.13 600.76 519.5Z" fill="#252036"/>
<path opacity="0.05" d="M730.52 467.19C729.96 472.58 728.89 478.12 725.8 482.58C721.34 489.01 713.54 492.08 706.21 494.81L682.79 503.5C678.328 505.299 673.726 506.731 669.03 507.78C666.783 508.214 664.507 508.481 662.22 508.58C653.307 508.803 644.455 507.062 636.29 503.48C625.99 499.15 616.75 492.67 607.91 485.83C602.48 481.62 597.15 477.23 592.72 471.99C589.3 467.99 586.33 463.05 586.57 457.76C586.817 455.215 587.409 452.715 588.33 450.33C591.692 440.128 594.154 429.651 595.69 419.02C597.325 407.712 597.861 396.272 597.29 384.86C597.08 380.67 596.71 376.47 597.29 372.31C599.29 357.39 604.39 347.13 616.29 337.96C618.82 336.02 629.17 333.57 632.23 332.68L632.8 332.54C638.29 331.41 649.07 335.19 654.15 336.92C663.906 340.202 672.409 346.419 678.495 354.72C684.581 363.02 687.954 372.999 688.15 383.29C688.23 386.99 688.1 391.2 690.28 394C690.555 394.367 690.871 394.703 691.22 395C692.44 396 694 396.61 695.28 397.58C698.82 400.27 699.4 405.38 698.81 409.78C698.22 414.18 696.75 418.56 697.33 422.96C697.464 423.943 697.692 424.911 698.01 425.85C699.27 429.63 701.81 432.98 704.29 436.17L714.34 449.17C716.17 451.53 718.2 454.03 721.03 454.92L721.32 455.01C723.03 455.47 724.88 455.3 726.51 456.01C730.49 457.58 730.96 462.93 730.52 467.19Z" fill="#004760"/>
<path d="M481.57 329.5C468.68 338.12 465.06 354.99 459.7 369.5C457.63 375.1 455.16 380.6 453.98 386.5C452.49 393.84 453.1 401.42 452.98 408.91C452.513 424.66 448.628 440.119 441.595 454.219C434.563 468.319 424.55 480.722 412.25 490.57L486.05 512.57C490.73 514.058 495.491 515.277 500.31 516.22C507.31 517.45 514.43 517.52 521.53 517.58L566.71 517.98C570.12 517.98 574.11 517.76 576.03 514.98C576.89 513.548 577.288 511.886 577.17 510.22C577.01 501.07 570.05 493.63 566.63 485.15C561.13 471.51 573.7 458.98 573.23 444.28C573.01 437.45 572.78 427.35 573.23 420.53C574.23 404.74 574.39 390.32 572.59 374.59C570.59 356.93 555 344.41 540.65 333.91C525.05 322.5 498.63 318.13 481.57 329.5Z" fill="#D94B25"/>
<path d="M498.17 402.34L497.86 453.91C489.46 454.351 481.123 455.613 472.97 457.68C466.153 459.38 460.213 463.557 456.307 469.396C452.401 475.236 450.808 482.321 451.84 489.27L461.61 555.79L567.24 562.04V497.66C565.724 490.416 561.477 484.033 555.381 479.836C549.285 475.64 541.808 473.951 534.5 475.12L530.36 475.78L539.74 422.03L498.17 402.34Z" fill="#FFC095"/>
<path d="M474.73 452.66C474.73 452.66 495.98 495.79 497.86 504.54C499.74 513.29 459.11 543.92 453.48 540.79C447.85 537.66 448.48 614.54 448.48 614.54L557.24 603.91L559.74 588.28C559.74 588.28 587.87 576.4 562.24 528.9L554.74 525.77C554.74 525.77 548.49 550.77 501.61 503.27L479.11 450.77L474.73 452.66Z" fill="#252036"/>
<path opacity="0.05" d="M558.8 587.35C558.8 587.35 537.55 589.23 535.67 584.85L531.92 584.22C531.92 584.22 525.67 597.97 466.92 583.59L448.41 582.96L444.41 592.36L558.97 596.11L558.8 587.35Z" fill="#004760"/>
<path opacity="0.05" d="M499.23 437.04C500.502 437.927 501.871 438.666 503.31 439.24C506.87 440.62 510.78 440.74 514.59 440.84C521.46 441.02 528.91 441.04 534.44 436.96C536.945 435.047 538.926 432.532 540.2 429.65L540.98 425.16L499.41 405.5L499.23 437.04Z" fill="#004760"/>
<path d="M473.41 374.5C472.149 384.809 473.349 395.27 476.913 405.025C480.476 414.78 486.301 423.551 493.91 430.62C496.257 432.922 499.01 434.77 502.03 436.07C505.59 437.45 509.5 437.57 513.31 437.67C520.18 437.85 527.63 437.87 533.16 433.79C539.72 428.96 541.44 420.06 542.67 412.01L546.51 386.9C547.63 379.59 548.67 371.72 545.33 365.12C539.63 353.82 517.61 343.39 505.21 344.69C488.96 346.42 475.55 358.5 473.41 374.5Z" fill="#FFC095"/>
<path opacity="0.05" d="M489.48 366.71C485.95 374.18 483.48 382.51 484.8 390.71C485.93 397.71 489.72 403.87 493.53 409.81C502.15 423.23 511.6 437.01 513.34 452.87C513.96 458.54 513.52 464.46 511.05 469.59C508.58 474.72 503.84 478.96 498.21 479.88C496.662 480.218 495.046 480.039 493.61 479.37C491.84 478.37 490.88 476.48 489.98 474.69C485.65 466.07 465.12 463.6 455.66 465.52C454.34 465.79 465.71 459.52 464.38 459.33C460.5 458.76 459.79 453.51 460.07 449.6L465.52 374.14C465.83 369.87 466.15 365.54 467.52 361.48C472.52 346.86 489.79 340.19 505.24 339.75C510.034 339.549 514.834 339.972 519.52 341.01C530.3 343.56 539.71 350.4 547 358.74C552 364.49 556.24 371.17 557.9 378.62C559.8 387.15 558.25 396.03 556.83 404.62C550.15 445.17 546.5 487.55 558.94 526.71C547.11 529.11 534.15 520.71 531.49 508.95C530.43 504.25 530.85 499.36 531.27 494.57C532.88 476.23 534.49 457.88 537.27 439.69C539.42 425.83 542.27 412 542.47 397.97C542.63 386.53 540.66 374.3 532.92 365.87C520.33 352.07 498.47 347.71 489.48 366.71Z" fill="#004760"/>
<path d="M489.48 365.5C485.95 372.97 483.48 381.3 484.8 389.5C485.93 396.5 489.72 402.66 493.53 408.6C502.15 422.02 511.6 435.8 513.34 451.66C513.96 457.33 513.52 463.25 511.05 468.38C508.58 473.51 503.84 477.75 498.21 478.67C496.662 479.008 495.046 478.829 493.61 478.16C491.84 477.16 490.88 475.27 489.98 473.48C485.65 464.86 465.12 462.39 455.66 464.31C454.34 464.58 465.71 458.31 464.38 458.12C460.5 457.55 459.79 452.3 460.07 448.39L465.52 372.93C465.83 368.66 466.15 364.33 467.52 360.27C472.52 345.65 489.79 338.98 505.24 338.54C510.034 338.339 514.834 338.762 519.52 339.8C530.3 342.35 539.71 349.19 547 357.53C552 363.28 556.24 369.96 557.9 377.41C559.8 385.94 558.25 394.82 556.83 403.41C550.15 443.96 546.5 486.34 558.94 525.5C547.11 527.9 534.15 519.5 531.49 507.74C530.43 503.04 530.85 498.15 531.27 493.36C532.88 475.02 534.49 456.67 537.27 438.48C539.42 424.62 542.27 410.79 542.47 396.76C542.63 385.32 540.66 373.09 532.92 364.66C520.33 350.82 498.47 346.5 489.48 365.5Z" fill="#D94B25"/>
<path d="M619.43 595.86H235.65V783H619.43V595.86Z" fill="#F3F0DD"/>
<path d="M147.48 467.61C144.23 469.28 140.91 470.97 138.38 473.61C135.85 476.25 134.16 479.94 132.83 483.51C129.58 492.25 127.56 501.39 125.55 510.51C118.38 542.99 111.19 575.66 109.63 608.88C109.24 617.08 109.22 625.4 111.25 633.35C113.47 642.03 118.07 649.9 122.92 657.44C138.609 681.801 157.513 703.934 179.12 723.24C180.452 724.306 181.612 725.571 182.56 726.99C183.254 728.352 183.813 729.779 184.23 731.25C188.23 742.66 199.39 749.73 209.78 755.92C213.95 758.4 218.24 760.92 223.03 761.73C225.5 762.14 228.03 762.09 230.4 763.03C234.02 764.48 236.4 768.03 239.88 769.82C243.36 771.61 249.16 769.5 248.22 765.71C251.48 768.22 256.71 762.9 254.14 759.71C256.71 761.36 260.27 758.63 260.6 755.59C260.93 752.55 259.21 749.7 257.6 747.13C251.96 738.32 246.13 729.31 237.67 723.13C228.62 716.56 217.29 713.83 207.97 707.65C198.91 701.65 192.23 692.74 185.85 683.94C172.796 665.94 160.186 647.633 148.02 629.02C146.42 626.57 144.79 624.02 144.24 621.17C143.69 618.32 144.24 615.17 144.9 612.27C150.845 584.533 159.273 557.387 170.08 531.16C172.851 524.057 176.195 517.191 180.08 510.63C185.46 501.92 192.44 494.26 197.62 485.43C202.8 476.6 206.15 465.95 203.3 456.11C200.53 446.53 188.3 436.36 179.41 443.66C174.41 447.73 170.95 453.29 165.49 457.17C159.746 461.08 153.727 464.569 147.48 467.61Z" fill="#FFC095"/>
<path d="M197.88 349.81C194.24 359.26 196.23 369.81 198.27 379.81C199.44 385.5 200.64 391.28 203.41 396.39C205.649 400.372 208.609 403.902 212.14 406.8C220.866 414.069 231.787 418.184 243.14 418.48C245.408 418.66 247.686 418.318 249.8 417.48C252.46 416.26 254.3 413.8 256.02 411.48C260.37 405.48 264.76 399.48 267.75 392.76C273.12 380.65 273.65 367.03 274.09 353.76C274.29 351.806 274.086 349.832 273.49 347.96C272.997 346.846 272.35 345.806 271.57 344.87C263.57 334.42 248.26 317.65 233.76 322.54C220.26 327.02 203.28 335.78 197.88 349.81Z" fill="#FFC095"/>
<path opacity="0.05" d="M236.66 763.64C234.34 762.71 231.76 762.76 229.29 762.34C224.5 761.54 220.21 759.01 216.04 756.53C205.64 750.34 194.5 743.27 190.49 731.86C190.073 730.389 189.514 728.962 188.82 727.6C187.872 726.181 186.712 724.916 185.38 723.85C163.773 704.544 144.869 682.411 129.18 658.05C124.33 650.51 119.73 642.64 117.51 633.96C115.51 626.01 115.51 617.69 115.89 609.49C117.45 576.27 124.64 543.6 131.81 511.12C133.81 502.01 135.81 492.87 139.09 484.12C140.42 480.55 142 476.97 144.64 474.22C147.28 471.47 150.49 469.89 153.74 468.22C159.984 465.176 166 461.683 171.74 457.77C177.2 453.89 180.69 448.33 185.66 444.26C186.758 443.357 188.022 442.678 189.38 442.26C187.679 441.728 185.872 441.632 184.124 441.981C182.377 442.331 180.745 443.114 179.38 444.26C174.38 448.33 170.92 453.89 165.46 457.77C159.72 461.683 153.704 465.176 147.46 468.22C144.21 469.89 140.89 471.58 138.36 474.22C135.83 476.86 134.14 480.55 132.81 484.12C129.56 492.86 127.54 502 125.53 511.12C118.41 543.6 111.18 576.26 109.62 609.5C109.23 617.7 109.21 626.02 111.24 633.97C113.46 642.65 118.06 650.52 122.91 658.06C138.599 682.421 157.503 704.554 179.11 723.86C180.442 724.926 181.602 726.191 182.55 727.61C183.244 728.972 183.803 730.399 184.22 731.87C188.22 743.28 199.38 750.35 209.77 756.54C213.94 759.02 218.23 761.54 223.02 762.35C225.49 762.76 228.02 762.71 230.39 763.65C234.01 765.1 236.39 768.65 239.87 770.44C240.828 770.87 241.87 771.085 242.92 771.069C243.97 771.054 245.005 770.808 245.95 770.35C242.57 768.5 240.22 765.07 236.66 763.64Z" fill="#004760"/>
<path d="M209.329 343.88C203.249 353.63 202.119 366.01 205.019 377.13C207.189 385.47 211.509 394.13 208.589 402.27C206.389 408.38 200.259 414.47 203.299 420.21C203.979 421.49 205.079 422.55 205.479 423.94C206.159 426.31 204.629 428.66 203.569 430.88C198.029 442.44 204.649 455.73 207.889 468.13C210.289 477.31 210.779 486.86 211.259 496.34L205.259 481.01C202.787 493.871 197.433 506.005 189.599 516.5C194.005 516.549 198.382 517.222 202.599 518.5C199.479 518.124 196.331 518.936 193.781 520.774C191.232 522.613 189.467 525.342 188.837 528.422C188.207 531.501 188.759 534.705 190.382 537.396C192.005 540.088 194.582 542.07 197.599 542.95C191.459 544.31 185.119 540.13 182.179 534.57C179.239 529.01 179.009 522.44 179.359 516.16L174.359 516.57C179.358 504.559 181.485 491.547 180.569 478.57C180.159 472.83 178.269 466.05 172.769 464.36L171.119 479.59L164.409 466.07C163.977 464.882 163.156 463.874 162.079 463.21C161.26 462.954 160.425 462.754 159.579 462.61C156.949 461.8 155.929 458.37 156.749 455.75C157.569 453.13 159.679 451.14 161.689 449.26C168.489 442.9 175.269 436.12 178.949 427.57C182.369 419.63 182.859 410.78 183.219 402.14C183.646 392.013 183.979 381.88 184.219 371.74C184.389 363.74 184.499 355.68 186.219 347.88C189.219 334.67 197.219 322.4 208.989 315.65C220.759 308.9 236.119 308.29 247.699 315.3C254.699 319.52 259.869 326.04 264.919 332.42L279.409 350.72C282.409 354.51 285.469 358.41 286.859 363.03C289.419 371.55 285.859 380.66 281.519 388.45C277.179 396.24 271.969 403.91 270.909 412.74C269.689 422.95 274.239 432.86 278.679 442.13C284.319 453.91 290.049 465.84 298.539 475.76C302.859 480.81 308.079 485.71 309.299 492.24C308.379 492.991 307.295 493.516 306.135 493.771C304.974 494.027 303.77 494.006 302.619 493.71C306.066 507.403 308.823 521.247 310.889 535.24C298.589 527.133 286.659 518.5 275.099 509.34C274.618 511.618 273.569 513.737 272.05 515.501C270.531 517.265 268.59 518.616 266.409 519.43C266.059 515.55 267.409 511.73 267.599 507.84C267.789 503.95 266.289 499.41 262.599 498.24C260.439 497.56 257.879 498.14 256.049 496.81C254.709 495.81 254.189 494.11 253.749 492.5L245.409 461.88C240.341 461.637 235.309 462.852 230.909 465.38C237.183 461.879 241.846 456.072 243.909 449.19L226.559 448.92C231.139 444.587 235.576 440.11 239.869 435.49C246.119 428.77 252.089 421.71 256.639 413.74C269.409 391.41 269.589 362.4 257.089 339.91C255.019 336.18 252.549 332.55 249.089 330.1C236.579 321.41 216.189 332.89 209.329 343.88Z" fill="#D67820"/>
<path opacity="0.05" d="M283.41 590.91C283.41 588.24 284.69 585.75 286.01 583.43C287.83 580.25 289.783 577.15 291.87 574.13C293.368 571.678 295.348 569.555 297.69 567.89C300.12 566.37 303.37 565.89 305.85 567.29C306.393 567.722 307.043 567.998 307.73 568.09C308.73 568.09 309.39 567.09 310.28 566.71C311.88 565.97 313.72 567.15 314.84 568.52C315.96 569.89 316.84 571.52 318.45 572.31C319.03 572.59 319.68 572.72 320.27 572.98C322.32 573.88 323.41 576.09 324.33 578.14C325.06 579.496 325.486 580.993 325.58 582.53C325.58 585.21 323.58 587.4 321.69 589.32L316.85 594.32C315.622 595.718 314.189 596.922 312.6 597.89C311.8 598.368 310.904 598.66 309.976 598.745C309.048 598.83 308.113 598.705 307.24 598.38C306.815 598.107 306.314 597.977 305.81 598.01C305.433 598.144 305.11 598.396 304.89 598.73C303.819 600.043 302.818 601.412 301.89 602.83C301.106 604.329 299.97 605.616 298.58 606.58C297.1 607.4 294.87 607.13 294.2 605.58C294.12 605.274 293.965 604.992 293.75 604.76C293.14 604.28 292.36 605.06 291.65 605.36C290.46 605.87 289.06 604.87 288.65 603.64C288.367 602.371 288.443 601.048 288.87 599.82C287.98 599.1 286.68 599.53 285.53 599.59C283.16 599.72 283.64 598.2 283.7 596.82C283.89 594.8 283.46 592.91 283.41 590.91Z" fill="#004760"/>
<path d="M282.82 592.16C282.82 589.49 284.1 587 285.42 584.68C287.24 581.5 289.194 578.4 291.28 575.38C292.778 572.928 294.758 570.805 297.1 569.14C299.53 567.62 302.78 567.14 305.26 568.54C305.803 568.972 306.453 569.248 307.14 569.34C308.14 569.34 308.8 568.34 309.69 567.96C311.29 567.22 313.13 568.4 314.25 569.77C315.37 571.14 316.25 572.77 317.86 573.56C318.44 573.84 319.09 573.97 319.68 574.23C321.73 575.13 322.82 577.34 323.74 579.39C324.47 580.746 324.896 582.243 324.99 583.78C324.99 586.46 322.99 588.65 321.1 590.57L316.26 595.57C315.032 596.968 313.599 598.172 312.01 599.14C311.211 599.618 310.314 599.91 309.386 599.995C308.458 600.08 307.523 599.955 306.65 599.63C306.226 599.357 305.724 599.227 305.22 599.26C304.844 599.394 304.521 599.646 304.3 599.98C303.229 601.293 302.228 602.662 301.3 604.08C300.516 605.579 299.38 606.866 297.99 607.83C296.51 608.65 294.28 608.38 293.61 606.83C293.53 606.524 293.375 606.242 293.16 606.01C292.55 605.53 291.77 606.31 291.06 606.61C289.87 607.12 288.47 606.12 288.06 604.89C287.777 603.621 287.854 602.298 288.28 601.07C287.39 600.35 286.09 600.78 284.94 600.84C282.57 600.97 283.05 599.45 283.11 598.07C283.26 596.05 282.84 594.16 282.82 592.16Z" fill="#FFC095"/>
<path opacity="0.05" d="M450.669 541.73L390.119 588.62L348.119 621.11C322.489 644.86 314.369 611.11 314.369 611.11L320.619 512.98C320.389 487.84 324.519 473.18 329.909 464.71C334.359 457.71 339.669 454.95 344.089 453.99L344.829 453.85C347.588 453.34 350.428 453.47 353.129 454.23C371.129 461.28 370.509 481.34 367.519 495.33C366.472 500.29 365.004 505.15 363.129 509.86C363.185 511.616 363.121 513.373 362.939 515.12C361.709 531.06 355.629 573.62 355.629 573.62L428.129 524.24L450.669 541.73Z" fill="#004760"/>
<path d="M448.79 541.73L388.24 588.62L346.24 621.11C320.61 644.86 312.49 611.11 312.49 611.11L318.74 512.98C318.51 487.84 322.64 473.18 328.03 464.71C332.48 457.71 337.79 454.95 342.21 453.99L342.95 453.85C345.71 453.34 348.549 453.47 351.25 454.23C369.25 461.28 368.63 481.34 365.64 495.33C364.593 500.29 363.125 505.15 361.25 509.86C361.306 511.616 361.242 513.373 361.06 515.12C359.83 531.06 353.75 573.62 353.75 573.62L426.25 524.24L448.79 541.73Z" fill="#C6866B"/>
<path opacity="0.05" d="M430.349 508.29C430.349 508.29 397.849 583.92 402.849 619.55C402.849 619.55 395.349 641.43 455.349 631.43L540.349 612.68L563.479 618.31L568.479 624.56V642.06C568.479 642.06 575.359 647.06 577.229 642.06C579.099 637.06 577.229 623.93 577.229 623.93L581.609 631.43L583.489 646.43C583.489 646.43 588.489 650.18 590.369 646.43L587.859 624.5C587.859 624.5 597.859 645.13 602.239 643.25C606.619 641.37 596.609 617.62 596.609 617.62C598.563 617.618 600.483 618.137 602.17 619.123C603.857 620.109 605.252 621.526 606.209 623.23C608.209 626.7 610.789 630.23 612.859 628.88C616.609 626.38 612.859 619.5 612.859 619.5L604.109 607C591.933 597.666 577.07 592.511 561.729 592.3L449.729 590.75C449.729 590.75 465.359 553.87 466.609 535.75C466.609 535.75 467.239 524.5 480.989 517C494.739 509.5 446.599 442.66 430.349 508.29Z" fill="#004760"/>
<path d="M476.599 468.28C476.599 468.28 445.349 442.65 429.099 508.28C429.099 508.28 396.599 583.91 401.599 619.54C401.599 619.54 394.099 641.42 454.099 631.42L539.099 612.67L562.229 618.3L567.229 624.55V642.05C567.229 642.05 574.109 647.05 575.979 642.05C577.849 637.05 575.979 623.92 575.979 623.92L580.359 631.42L582.239 646.42C582.239 646.42 587.239 650.17 589.119 646.42L586.609 624.5C586.609 624.5 596.609 645.13 600.989 643.25C605.369 641.37 595.409 617.67 595.409 617.67C597.363 617.668 599.283 618.187 600.97 619.173C602.657 620.159 604.052 621.576 605.009 623.28C607.009 626.75 609.589 630.28 611.659 628.93C615.409 626.43 611.659 619.55 611.659 619.55L602.909 607.05C590.733 597.716 575.87 592.561 560.529 592.35L448.529 590.8C448.529 590.8 464.159 553.92 465.409 535.8C465.409 535.8 466.039 524.55 479.789 517.05C493.539 509.55 476.599 468.28 476.599 468.28Z" fill="#FFC095"/>
<path opacity="0.05" d="M685.989 473.91C685.989 473.91 730.369 441.41 732.239 502.66L734.749 629.5L663.489 705.8C663.489 705.8 659.109 720.18 645.989 721.43L631.609 738.93C631.609 738.93 624.729 739.56 625.979 737.05C627.229 734.54 635.979 717.67 635.979 717.67L617.229 742.67C617.229 742.67 611.599 740.79 613.479 738.92C613.479 738.92 607.229 745.8 605.979 739.55C604.729 733.3 605.979 734.55 605.979 734.55C605.979 734.55 597.849 740.8 599.729 732.05C601.609 723.3 617.859 695.17 619.729 695.17C621.599 695.17 643.479 693.29 643.479 693.29L703.479 620.16C703.479 620.16 683.479 535.16 677.849 505.16C672.219 475.16 685.989 473.91 685.989 473.91Z" fill="#004760"/>
<path d="M687.239 473.91C687.239 473.91 731.619 441.41 733.489 502.66L735.999 629.5L664.739 705.8C664.739 705.8 660.359 720.18 647.239 721.43L632.859 738.93C632.859 738.93 625.979 739.56 627.229 737.05C628.479 734.54 637.229 717.67 637.229 717.67L618.479 742.67C618.479 742.67 612.849 740.79 614.729 738.92C614.729 738.92 608.479 745.8 607.229 739.55C605.979 733.3 607.229 734.55 607.229 734.55C607.229 734.55 599.099 740.8 600.979 732.05C602.859 723.3 619.109 695.17 620.979 695.17C622.849 695.17 644.729 693.29 644.729 693.29L704.729 620.16C704.729 620.16 684.729 535.16 679.099 505.16C673.469 475.16 687.239 473.91 687.239 473.91Z" fill="#FDBE92"/>
<path d="M730.52 465.31C729.96 470.7 728.89 476.24 725.8 480.7C721.34 487.13 713.54 490.2 706.21 492.93L682.8 501.63C678.338 503.429 673.736 504.861 669.04 505.91C666.793 506.344 664.517 506.611 662.23 506.71C653.317 506.933 644.465 505.192 636.3 501.61C626 497.28 616.76 490.8 607.92 483.96C602.49 479.75 597.16 475.36 592.73 470.12C589.31 466.12 586.34 461.18 586.58 455.89C586.827 453.345 587.419 450.845 588.34 448.46C591.701 438.258 594.164 427.781 595.7 417.15C597.335 405.842 597.871 394.402 597.3 382.99C597.09 378.8 596.72 374.6 597.3 370.44C599.3 355.52 604.4 345.26 616.3 336.09C618.83 334.15 629.18 331.7 632.24 330.81L632.81 330.67C638.3 329.54 649.08 333.32 654.16 335.05C663.916 338.332 672.419 344.549 678.505 352.85C684.591 361.15 687.963 371.129 688.16 381.42C688.24 385.12 688.11 389.33 690.29 392.13C690.565 392.497 690.881 392.833 691.23 393.13C692.45 394.13 694.01 394.74 695.29 395.71C698.83 398.4 699.41 403.51 698.82 407.91C698.23 412.31 696.76 416.69 697.34 421.09C697.474 422.073 697.702 423.041 698.02 423.98C699.28 427.76 701.82 431.11 704.3 434.3L714.35 447.3C716.18 449.66 718.21 452.16 721.04 453.05L721.33 453.14C723.04 453.6 724.89 453.43 726.52 454.14C730.49 455.7 730.96 461.06 730.52 465.31Z" fill="#F3F0DD"/>
<path opacity="0.05" d="M608.159 376.84C603.819 385.17 602.419 394.74 602.239 404.13C602.139 408.94 602.359 413.83 603.889 418.39C605.273 422.045 607.068 425.531 609.239 428.78L618.779 444.3C620.069 446.4 621.469 448.61 623.669 449.73C625.869 450.85 628.799 450.67 631.409 450.35C637.619 449.59 643.929 448.62 649.499 445.78C656.679 442.12 661.989 435.71 667.089 429.47C668.731 427.935 669.973 426.022 670.707 423.897C671.441 421.773 671.644 419.501 671.299 417.28L670.199 392.5C670.219 389.981 669.844 387.474 669.089 385.07C666.909 379.22 660.779 376.07 655.559 372.66C647.869 367.66 639.189 359.51 629.249 360.08C620.129 360.6 612.129 369.23 608.159 376.84Z" fill="#004760"/>
<path d="M608.159 375.59C603.819 383.92 602.419 393.49 602.239 402.88C602.139 407.69 602.359 412.58 603.889 417.14C605.275 420.785 607.07 424.26 609.239 427.5L618.779 443.02C620.069 445.12 621.469 447.33 623.669 448.45C625.869 449.57 628.799 449.39 631.409 449.07C637.619 448.31 643.929 447.34 649.499 444.5C656.679 440.84 661.989 434.43 667.089 428.19C668.731 426.655 669.973 424.742 670.707 422.617C671.441 420.493 671.644 418.221 671.299 416L670.209 391.21C670.229 388.691 669.854 386.184 669.099 383.78C666.919 377.93 660.789 374.78 655.569 371.37C647.879 366.37 639.199 358.22 629.259 358.79C620.129 359.35 612.129 367.98 608.159 375.59Z" fill="#FDBE92"/>
<g opacity="0.1">
<path opacity="0.1" d="M588.33 458.5C591.691 448.298 594.154 437.821 595.69 427.19C597.129 417.225 597.718 407.155 597.45 397.09C597.266 404.025 596.678 410.943 595.69 417.81C594.154 428.441 591.691 438.918 588.33 449.12C587.409 451.505 586.817 454.005 586.57 456.55C586.507 458.308 586.761 460.062 587.32 461.73C587.62 460.61 587.98 459.5 588.33 458.5Z" fill="white"/>
<path opacity="0.1" d="M697.801 423.76C697.28 426.163 697.138 428.633 697.381 431.08C697.515 432.063 697.743 433.031 698.061 433.97C699.321 437.75 701.861 441.1 704.341 444.29L714.391 457.29C716.221 459.65 718.251 462.15 721.081 463.04L721.371 463.13C723.081 463.59 724.931 463.42 726.561 464.13C727.493 464.563 728.31 465.211 728.942 466.021C729.575 466.832 730.007 467.78 730.201 468.79C730.331 467.86 730.441 466.94 730.541 466.01C730.981 461.75 730.541 456.4 726.541 454.75C724.911 454.07 723.061 454.24 721.351 453.75L721.061 453.66C718.231 452.77 716.201 450.27 714.371 447.91L704.321 434.91C701.841 431.72 699.321 428.37 698.041 424.59C697.961 424.32 697.871 424.04 697.801 423.76Z" fill="white"/>
<path opacity="0.1" d="M597.26 380.43C599.26 365.51 604.36 355.25 616.26 346.08C618.79 344.14 629.14 341.69 632.2 340.8L632.77 340.66C638.26 339.53 649.04 343.31 654.12 345.04C663.876 348.322 672.379 354.539 678.465 362.84C684.551 371.14 687.923 381.119 688.12 391.41C688.2 395.11 688.07 399.32 690.25 402.12C690.525 402.487 690.841 402.823 691.19 403.12C692.41 404.12 693.97 404.73 695.25 405.7C696.836 406.967 697.955 408.726 698.43 410.7C698.56 409.99 698.68 409.27 698.78 408.56C699.37 404.16 698.78 399.05 695.25 396.36C693.97 395.36 692.41 394.83 691.19 393.78C690.841 393.483 690.525 393.147 690.25 392.78C688.07 389.98 688.19 385.78 688.12 382.07C687.923 371.779 684.551 361.8 678.465 353.5C672.379 345.199 663.876 338.982 654.12 335.7C649.04 333.97 638.26 330.2 632.77 331.32L632.2 331.46C629.14 332.35 618.79 334.8 616.26 336.74C604.32 345.91 599.19 356.17 597.26 371.09C596.906 374.509 596.872 377.954 597.16 381.38C597.2 381.05 597.22 380.74 597.26 380.43Z" fill="white"/>
</g>
<path d="M274.02 619.94C272.2 618.155 269.746 617.166 267.198 617.19C264.649 617.215 262.215 618.251 260.43 620.07C258.645 621.889 257.656 624.343 257.68 626.892C257.705 629.441 258.74 631.875 260.56 633.66L274.28 647.12L287.74 633.4C289.525 631.581 290.514 629.127 290.489 626.578C290.465 624.029 289.429 621.595 287.61 619.81C285.79 618.025 283.336 617.036 280.788 617.06C278.239 617.085 275.805 618.121 274.02 619.94V619.94Z" fill="#EB5E30"/>
<path d="M567.18 730.57C565.36 728.785 562.907 727.796 560.358 727.82C557.809 727.845 555.375 728.881 553.59 730.7C551.805 732.519 550.816 734.973 550.84 737.522C550.865 740.071 551.9 742.505 553.72 744.29L567.41 757.74L580.87 744.02C581.754 743.119 582.451 742.053 582.923 740.883C583.395 739.712 583.632 738.46 583.619 737.198C583.607 735.936 583.347 734.689 582.853 733.528C582.359 732.366 581.641 731.314 580.74 730.43C579.839 729.546 578.773 728.848 577.602 728.377C576.432 727.905 575.18 727.668 573.918 727.68C572.656 727.693 571.409 727.953 570.248 728.447C569.086 728.941 568.034 729.659 567.15 730.56L567.18 730.57Z" fill="#EB5E30"/>
<path d="M757.039 65.73C753.229 65.73 753.229 71.64 757.039 71.64C760.849 71.64 760.849 65.73 757.039 65.73Z" fill="white"/>
<path d="M613.41 229.63C609.6 229.63 609.6 235.54 613.41 235.54C617.22 235.54 617.22 229.63 613.41 229.63Z" fill="white"/>
<path d="M71.0294 510.11C67.2194 510.11 67.2194 516.02 71.0294 516.02C74.8394 516.02 74.8394 510.11 71.0294 510.11Z" fill="white"/>
<path d="M459.65 165.42C455.84 165.42 455.84 171.33 459.65 171.33C463.46 171.33 463.46 165.42 459.65 165.42Z" fill="white"/>
<path d="M877.849 224.86H877.409C876.879 224.86 876.37 224.649 875.995 224.274C875.62 223.899 875.409 223.39 875.409 222.86V222.42H874.309V222.86C874.309 223.39 874.098 223.899 873.723 224.274C873.348 224.649 872.84 224.86 872.309 224.86H871.869V225.96H872.409C872.94 225.96 873.448 226.171 873.823 226.546C874.198 226.921 874.409 227.43 874.409 227.96V228.4H875.409V227.96C875.409 227.43 875.62 226.921 875.995 226.546C876.37 226.171 876.879 225.96 877.409 225.96H877.849V224.86Z" fill="white"/>
<path d="M754.5 114.18H754.06C753.529 114.18 753.02 113.969 752.645 113.594C752.27 113.219 752.06 112.71 752.06 112.18V111.74H750.96V112.18C750.96 112.71 750.749 113.219 750.374 113.594C749.999 113.969 749.49 114.18 748.96 114.18H748.52V115.28H748.96C749.49 115.28 749.999 115.491 750.374 115.866C750.749 116.241 750.96 116.75 750.96 117.28V117.72H752.06V117.28C752.06 116.75 752.27 116.241 752.645 115.866C753.02 115.491 753.529 115.28 754.06 115.28H754.5V114.18Z" fill="white"/>
<path d="M125.099 444.5H124.659C124.129 444.5 123.62 444.289 123.245 443.914C122.87 443.539 122.659 443.03 122.659 442.5V442.06H121.559V442.5C121.559 443.03 121.348 443.539 120.973 443.914C120.598 444.289 120.09 444.5 119.559 444.5H119.119V445.6H119.559C120.09 445.6 120.598 445.811 120.973 446.186C121.348 446.561 121.559 447.07 121.559 447.6V448.04H122.659V447.6C122.659 447.07 122.87 446.561 123.245 446.186C123.62 445.811 124.129 445.6 124.659 445.6H125.099V444.5Z" fill="white"/>
<path d="M475.701 261.18H475.261C474.73 261.18 474.222 260.969 473.846 260.594C473.471 260.219 473.261 259.71 473.261 259.18V258.74H472.161V259.18C472.161 259.71 471.95 260.219 471.575 260.594C471.2 260.969 470.691 261.18 470.161 261.18H469.721V262.28H470.161C470.691 262.28 471.2 262.491 471.575 262.866C471.95 263.241 472.161 263.75 472.161 264.28V264.72H473.261V264.28C473.261 263.75 473.471 263.241 473.846 262.866C474.222 262.491 474.73 262.28 475.261 262.28H475.701V261.18Z" fill="white"/>
<path d="M906.251 240.37L905.911 240.09C905.51 239.755 905.257 239.276 905.205 238.757C905.152 238.238 905.305 237.718 905.631 237.31L905.911 236.97L905.061 236.28L904.781 236.62C904.446 237.02 903.967 237.274 903.448 237.326C902.928 237.378 902.409 237.225 902.001 236.9L901.661 236.62L900.971 237.47L901.311 237.75C901.711 238.085 901.964 238.564 902.017 239.083C902.069 239.602 901.916 240.122 901.591 240.53L901.311 240.87L902.161 241.56L902.441 241.22C902.776 240.82 903.254 240.566 903.774 240.514C904.293 240.462 904.813 240.615 905.221 240.94L905.561 241.22L906.251 240.37Z" fill="white"/>
<path d="M613.091 169.4L612.751 169.12C612.35 168.785 612.097 168.306 612.045 167.787C611.992 167.268 612.145 166.748 612.471 166.34L612.751 166L611.901 165.31L611.621 165.65C611.285 166.05 610.807 166.304 610.288 166.356C609.768 166.408 609.249 166.255 608.841 165.93L608.501 165.65L607.811 166.5L608.151 166.78C608.551 167.115 608.804 167.594 608.856 168.113C608.909 168.632 608.756 169.152 608.431 169.56L608.151 169.9L609.001 170.59L609.281 170.25C609.616 169.85 610.094 169.596 610.614 169.544C611.133 169.492 611.652 169.645 612.061 169.97L612.401 170.25L613.091 169.4Z" fill="white"/>
<path d="M809.94 584.21L809.6 583.93C809.2 583.595 808.947 583.116 808.894 582.597C808.842 582.078 808.995 581.558 809.32 581.15L809.6 580.81L808.75 580.12L808.47 580.46C808.135 580.86 807.657 581.114 807.137 581.166C806.618 581.218 806.098 581.065 805.69 580.74L805.35 580.46L804.66 581.31L805 581.59C805.4 581.925 805.654 582.404 805.706 582.923C805.758 583.442 805.606 583.962 805.28 584.37L805 584.71L805.85 585.4L806.13 585.06C806.465 584.66 806.944 584.406 807.463 584.354C807.983 584.302 808.502 584.455 808.91 584.78L809.25 585.06L809.94 584.21Z" fill="white"/>
<path d="M818.229 67.43L816.53 65.73L818.229 64.03L817.46 63.25L815.75 64.95L814.049 63.25L813.27 64.03L814.979 65.73L813.27 67.43L814.049 68.21L815.75 66.5L817.46 68.21L818.229 67.43Z" fill="white"/>
<path d="M879.59 77.23C879.382 77.2527 879.189 77.3515 879.049 77.5074C878.909 77.6634 878.832 77.8655 878.832 78.075C878.832 78.2845 878.909 78.4866 879.049 78.6426C879.189 78.7985 879.382 78.8973 879.59 78.92C879.798 78.8973 879.991 78.7985 880.131 78.6426C880.271 78.4866 880.348 78.2845 880.348 78.075C880.348 77.8655 880.271 77.6634 880.131 77.5074C879.991 77.3515 879.798 77.2527 879.59 77.23V77.23Z" fill="white"/>
<path d="M803.561 143.12C803.352 143.143 803.16 143.241 803.02 143.397C802.88 143.553 802.803 143.756 802.803 143.965C802.803 144.174 802.88 144.377 803.02 144.533C803.16 144.689 803.352 144.787 803.561 144.81C803.769 144.787 803.961 144.689 804.101 144.533C804.241 144.377 804.319 144.174 804.319 143.965C804.319 143.756 804.241 143.553 804.101 143.397C803.961 143.241 803.769 143.143 803.561 143.12V143.12Z" fill="white"/>
<path d="M704.721 127.91C704.513 127.933 704.32 128.031 704.18 128.187C704.04 128.343 703.963 128.546 703.963 128.755C703.963 128.964 704.04 129.167 704.18 129.323C704.32 129.479 704.513 129.577 704.721 129.6C704.929 129.577 705.122 129.479 705.262 129.323C705.401 129.167 705.479 128.964 705.479 128.755C705.479 128.546 705.401 128.343 705.262 128.187C705.122 128.031 704.929 127.933 704.721 127.91V127.91Z" fill="white"/>
<path d="M531.11 141.34H529.84C529.632 141.363 529.439 141.461 529.299 141.617C529.159 141.773 529.082 141.976 529.082 142.185C529.082 142.394 529.159 142.597 529.299 142.753C529.439 142.909 529.632 143.007 529.84 143.03H531.11C531.318 143.007 531.511 142.909 531.651 142.753C531.791 142.597 531.868 142.394 531.868 142.185C531.868 141.976 531.791 141.773 531.651 141.617C531.511 141.461 531.318 141.363 531.11 141.34V141.34Z" fill="white"/>
<path d="M509.57 249.56C509.362 249.583 509.17 249.681 509.03 249.837C508.89 249.993 508.812 250.196 508.812 250.405C508.812 250.614 508.89 250.817 509.03 250.973C509.17 251.129 509.362 251.227 509.57 251.25C509.779 251.227 509.971 251.129 510.111 250.973C510.251 250.817 510.328 250.614 510.328 250.405C510.328 250.196 510.251 249.993 510.111 249.837C509.971 249.681 509.779 249.583 509.57 249.56V249.56Z" fill="white"/>
<path d="M685.709 288.85C685.501 288.873 685.308 288.971 685.168 289.127C685.029 289.283 684.951 289.486 684.951 289.695C684.951 289.905 685.029 290.107 685.168 290.263C685.308 290.419 685.501 290.517 685.709 290.54C685.917 290.517 686.11 290.419 686.25 290.263C686.39 290.107 686.467 289.905 686.467 289.695C686.467 289.486 686.39 289.283 686.25 289.127C686.11 288.971 685.917 288.873 685.709 288.85V288.85Z" fill="white"/>
<path d="M699.651 215.35C699.442 215.373 699.25 215.471 699.11 215.627C698.97 215.783 698.893 215.986 698.893 216.195C698.893 216.405 698.97 216.607 699.11 216.763C699.25 216.919 699.442 217.017 699.651 217.04C699.859 217.017 700.051 216.919 700.191 216.763C700.331 216.607 700.408 216.405 700.408 216.195C700.408 215.986 700.331 215.783 700.191 215.627C700.051 215.471 699.859 215.373 699.651 215.35V215.35Z" fill="white"/>
<path d="M817.5 230.56C817.292 230.583 817.099 230.681 816.959 230.837C816.82 230.993 816.742 231.196 816.742 231.405C816.742 231.614 816.82 231.817 816.959 231.973C817.099 232.129 817.292 232.227 817.5 232.25C817.708 232.227 817.901 232.129 818.041 231.973C818.181 231.817 818.258 231.614 818.258 231.405C818.258 231.196 818.181 230.993 818.041 230.837C817.901 230.681 817.708 230.583 817.5 230.56V230.56Z" fill="white"/>
<path d="M806.09 485.26C805.882 485.283 805.689 485.381 805.549 485.537C805.409 485.693 805.332 485.895 805.332 486.105C805.332 486.314 805.409 486.517 805.549 486.673C805.689 486.828 805.882 486.927 806.09 486.95C806.298 486.927 806.491 486.828 806.631 486.673C806.771 486.517 806.848 486.314 806.848 486.105C806.848 485.895 806.771 485.693 806.631 485.537C806.491 485.381 806.298 485.283 806.09 485.26Z" fill="white"/>
<path d="M161.09 345.87C160.882 345.893 160.689 345.991 160.549 346.147C160.409 346.303 160.332 346.506 160.332 346.715C160.332 346.924 160.409 347.127 160.549 347.283C160.689 347.439 160.882 347.537 161.09 347.56C161.298 347.537 161.491 347.439 161.631 347.283C161.771 347.127 161.848 346.924 161.848 346.715C161.848 346.506 161.771 346.303 161.631 346.147C161.491 345.991 161.298 345.893 161.09 345.87V345.87Z" fill="white"/>
<path d="M99.0001 491.6C98.7919 491.623 98.5993 491.721 98.4594 491.877C98.3195 492.033 98.2422 492.236 98.2422 492.445C98.2422 492.655 98.3195 492.857 98.4594 493.013C98.5993 493.169 98.7919 493.267 99.0001 493.29C99.2084 493.267 99.4009 493.169 99.5408 493.013C99.6807 492.857 99.7581 492.655 99.7581 492.445C99.7581 492.236 99.6807 492.033 99.5408 491.877C99.4009 491.721 99.2084 491.623 99.0001 491.6V491.6Z" fill="white"/>
<path d="M306.82 432.04C306.612 432.063 306.42 432.161 306.28 432.317C306.14 432.473 306.062 432.676 306.062 432.885C306.062 433.095 306.14 433.297 306.28 433.453C306.42 433.608 306.612 433.707 306.82 433.73C307.029 433.707 307.221 433.608 307.361 433.453C307.501 433.297 307.578 433.095 307.578 432.885C307.578 432.676 307.501 432.473 307.361 432.317C307.221 432.161 307.029 432.063 306.82 432.04Z" fill="white"/>
<path d="M778.221 525.81C778.013 525.833 777.82 525.932 777.68 526.087C777.54 526.243 777.463 526.446 777.463 526.655C777.463 526.865 777.54 527.067 777.68 527.223C777.82 527.378 778.013 527.477 778.221 527.5C778.429 527.477 778.622 527.378 778.762 527.223C778.901 527.067 778.979 526.865 778.979 526.655C778.979 526.446 778.901 526.243 778.762 526.087C778.622 525.932 778.429 525.833 778.221 525.81Z" fill="white"/>
<path d="M750.34 619.59C750.132 619.613 749.939 619.711 749.799 619.867C749.659 620.023 749.582 620.226 749.582 620.435C749.582 620.644 749.659 620.847 749.799 621.003C749.939 621.159 750.132 621.257 750.34 621.28C750.548 621.257 750.741 621.159 750.881 621.003C751.021 620.847 751.098 620.644 751.098 620.435C751.098 620.226 751.021 620.023 750.881 619.867C750.741 619.711 750.548 619.613 750.34 619.59Z" fill="white"/>
<path d="M553.92 285.05C553.712 285.073 553.519 285.172 553.379 285.327C553.239 285.483 553.162 285.685 553.162 285.895C553.162 286.104 553.239 286.307 553.379 286.463C553.519 286.619 553.712 286.717 553.92 286.74C554.128 286.717 554.321 286.619 554.461 286.463C554.601 286.307 554.678 286.104 554.678 285.895C554.678 285.685 554.601 285.483 554.461 285.327C554.321 285.172 554.128 285.073 553.92 285.05V285.05Z" fill="white"/>
<path d="M433.539 250.83C433.331 250.853 433.138 250.952 432.998 251.107C432.859 251.263 432.781 251.465 432.781 251.675C432.781 251.884 432.859 252.087 432.998 252.243C433.138 252.399 433.331 252.497 433.539 252.52C433.747 252.497 433.94 252.399 434.08 252.243C434.22 252.087 434.297 251.884 434.297 251.675C434.297 251.465 434.22 251.263 434.08 251.107C433.94 250.952 433.747 250.853 433.539 250.83Z" fill="white"/>
<path d="M295.41 285.05C295.202 285.073 295.009 285.172 294.87 285.327C294.73 285.483 294.652 285.685 294.652 285.895C294.652 286.104 294.73 286.307 294.87 286.463C295.009 286.619 295.202 286.717 295.41 286.74C295.619 286.717 295.811 286.619 295.951 286.463C296.091 286.307 296.168 286.104 296.168 285.895C296.168 285.685 296.091 285.483 295.951 285.327C295.811 285.172 295.619 285.073 295.41 285.05Z" fill="white"/>
<path d="M878.319 144.39H877.049C876.49 144.39 875.953 144.612 875.557 145.008C875.162 145.404 874.939 145.94 874.939 146.5C874.939 147.06 875.162 147.596 875.557 147.992C875.953 148.388 876.49 148.61 877.049 148.61H878.319C878.879 148.61 879.416 148.388 879.811 147.992C880.207 147.596 880.429 147.06 880.429 146.5C880.429 145.94 880.207 145.404 879.811 145.008C879.416 144.612 878.879 144.39 878.319 144.39V144.39Z" fill="white"/>
<path d="M756.671 214.08C753.951 214.08 753.951 218.3 756.671 218.3C759.391 218.3 759.411 214.08 756.671 214.08Z" fill="white"/>
<path d="M660.409 285.05C657.689 285.05 657.689 289.27 660.409 289.27C663.129 289.27 663.089 285.05 660.409 285.05Z" fill="white"/>
<path d="M757.94 444.71C755.22 444.71 755.22 448.93 757.94 448.93C760.66 448.93 760.66 444.71 757.94 444.71Z" fill="white"/>
<path d="M856.78 415.57C854.06 415.57 854.06 419.79 856.78 419.79C859.5 419.79 859.5 415.57 856.78 415.57Z" fill="white"/>
<path d="M773.15 694.35H771.88C771.32 694.35 770.783 694.572 770.388 694.968C769.992 695.364 769.77 695.9 769.77 696.46C769.77 697.02 769.992 697.556 770.388 697.952C770.783 698.348 771.32 698.57 771.88 698.57H773.15C773.709 698.57 774.246 698.348 774.642 697.952C775.037 697.556 775.26 697.02 775.26 696.46C775.26 695.9 775.037 695.364 774.642 694.968C774.246 694.572 773.709 694.35 773.15 694.35V694.35Z" fill="white"/>
<path d="M107.87 709.56C105.15 709.56 105.15 713.78 107.87 713.78C110.59 713.78 110.59 709.56 107.87 709.56Z" fill="white"/>
<path d="M722.4 331.43L791.25 262.58" stroke="url(#paint0_linear)" stroke-miterlimit="10" stroke-linecap="round"/>
<path d="M637.07 164.15L705.92 95.3" stroke="url(#paint1_linear)" stroke-miterlimit="10" stroke-linecap="round"/>
<path opacity="0.1" d="M852.92 369.63H831.92C836.29 368.46 839.4 365.63 839.4 362.26C839.4 358.89 836.29 356.06 831.92 354.89H841.09C847.6 354.89 852.92 351.32 852.92 346.96C852.92 342.6 847.6 339.03 841.09 339.03H766.75C760.24 339.03 754.92 342.6 754.92 346.96C754.92 350.29 758.03 353.16 762.4 354.33H753.23C746.72 354.33 741.4 357.9 741.4 362.26C741.4 366.62 746.72 370.19 753.23 370.19H774.23C769.86 371.36 766.75 374.19 766.75 377.56C766.75 381.92 772.07 385.49 778.58 385.49H852.93C859.44 385.49 864.76 381.92 864.76 377.56C864.76 373.2 859.41 369.63 852.92 369.63Z" fill="white"/>
<path opacity="0.1" d="M607.03 207.42H579.21C585 206.25 589.12 203.42 589.12 200.05C589.12 196.68 585 193.85 579.21 192.68H591.36C599.98 192.68 607.04 189.11 607.04 184.75C607.04 180.39 599.99 176.82 591.36 176.82H492.82C484.2 176.82 477.14 180.39 477.14 184.75C477.14 188.08 481.26 190.95 487.05 192.12H474.91C466.29 192.12 459.23 195.69 459.23 200.05C459.23 204.41 466.28 207.98 474.91 207.98H502.73C496.94 209.15 492.82 211.98 492.82 215.35C492.82 219.71 499.87 223.28 508.5 223.28H607.03C615.65 223.28 622.71 219.71 622.71 215.35C622.71 210.99 615.65 207.42 607.03 207.42Z" fill="white"/>
<path d="M285.392 677.93V700.016C285.392 702.068 285.86 703.652 286.796 704.768C287.768 705.884 289.226 706.442 291.17 706.442C293.114 706.442 294.572 705.884 295.544 704.768C296.552 703.616 297.056 702.032 297.056 700.016V677.93H307.64V700.016C307.64 703.508 306.902 706.496 305.426 708.98C303.95 711.428 301.934 713.282 299.378 714.542C296.858 715.766 294.05 716.378 290.954 716.378C287.858 716.378 285.086 715.766 282.638 714.542C280.226 713.282 278.318 711.428 276.914 708.98C275.546 706.532 274.862 703.544 274.862 700.016V677.93H285.392ZM348.729 716H338.145L324.051 694.724V716H313.467V677.93H324.051L338.145 699.476V677.93H348.729V716ZM379.058 696.452C381.29 696.956 383.054 698.072 384.35 699.8C385.682 701.492 386.348 703.436 386.348 705.632C386.348 708.872 385.232 711.41 383 713.246C380.768 715.082 377.636 716 373.604 716H354.758V677.93H373.01C376.898 677.93 379.94 678.794 382.136 680.522C384.368 682.25 385.484 684.68 385.484 687.812C385.484 690.044 384.89 691.916 383.702 693.428C382.55 694.904 381.002 695.912 379.058 696.452ZM365.342 693.05H370.688C373.352 693.05 374.684 691.952 374.684 689.756C374.684 687.488 373.352 686.354 370.688 686.354H365.342V693.05ZM371.498 707.468C374.162 707.468 375.494 706.352 375.494 704.12C375.494 702.968 375.134 702.086 374.414 701.474C373.73 700.862 372.74 700.556 371.444 700.556H365.342V707.468H371.498ZM409.239 716.378C405.675 716.378 402.399 715.55 399.411 713.894C396.423 712.202 394.047 709.88 392.283 706.928C390.555 703.94 389.691 700.574 389.691 696.83C389.691 693.086 390.555 689.738 392.283 686.786C394.047 683.798 396.423 681.476 399.411 679.82C402.399 678.164 405.675 677.336 409.239 677.336C412.839 677.336 416.115 678.164 419.067 679.82C422.055 681.476 424.413 683.798 426.141 686.786C427.869 689.738 428.733 693.086 428.733 696.83C428.733 700.574 427.869 703.94 426.141 706.928C424.413 709.88 422.055 712.202 419.067 713.894C416.079 715.55 412.803 716.378 409.239 716.378ZM409.239 706.55C411.939 706.55 414.063 705.668 415.611 703.904C417.195 702.14 417.987 699.782 417.987 696.83C417.987 693.806 417.195 691.43 415.611 689.702C414.063 687.938 411.939 687.056 409.239 687.056C406.503 687.056 404.361 687.938 402.813 689.702C401.265 691.43 400.491 693.806 400.491 696.83C400.491 699.818 401.265 702.194 402.813 703.958C404.361 705.686 406.503 706.55 409.239 706.55ZM462.165 677.93V686.354H452.013V716H441.429V686.354H431.385V677.93H462.165ZM494.755 677.93V686.354H484.603V716H474.019V686.354H463.975V677.93H494.755ZM509.254 707.9H521.08V716H498.67V677.93H509.254V707.9ZM535.78 686.408V692.618H547.93V700.664H535.78V707.522H549.55V716H525.196V677.93H549.55V686.408H535.78Z" fill="#004760"/>
</g>
<path d="M0 786.618C428 692.118 655.506 719.604 735.5 747.118C792.221 766.627 831.916 779.03 859.496 786.618H913C913 786.618 946.426 810.535 859.496 786.618H825L24 793.618L0 786.618Z" fill="white"/>
<defs>
<linearGradient id="paint0_linear" x1="721.9" y1="297" x2="791.75" y2="297" gradientUnits="userSpaceOnUse">
<stop stop-color="white"/>
<stop offset="0.77" stop-color="white" stop-opacity="0.15"/>
</linearGradient>
<linearGradient id="paint1_linear" x1="42330.6" y1="9026.52" x2="47139.7" y2="9026.52" gradientUnits="userSpaceOnUse">
<stop stop-color="white"/>
<stop offset="0.77" stop-color="white" stop-opacity="0.15"/>
</linearGradient>
<clipPath id="clip0">
<rect width="897.41" height="783" fill="white" transform="translate(31)"/>
</clipPath>
</defs>
</svg>
